<svg xmlns="http://www.w3.org/2000/svg" viewBox="0 0 1600 1600"><path fill="#51623D" fill-rule="evenodd" d="M801.5 31.15c-1.1.6-5 4.17-8.69 7.95-5.62 5.77-6.79 7.58-7.35 11.34-.93 6.2-2.1 7.4-8.97 9.18-3.3.85-7.45 2.66-9.24 4.02-3.1 2.34-3.25 2.78-3.26 9.16-.03 10-1.08 11.42-9.5 12.72-6.55 1-14.7 4.85-16.73 7.88-1.56 2.34-.63 6.49 2.27 10.13 5.02 6.33 4.7 6.43-14.53 5.05-7.88-.57-11.16-.39-15.5.88-3.02.89-9.33 2.06-14 2.6-21.38 2.5-46.53 20.6-60.6 43.6-1.15 1.9-3.06 4.12-4.24 4.94-1.17.82-3.35 3.6-4.85 6.2-3.78 6.55-16.89 22.47-27.26 33.1-3 3.08-6.87 7.25-8.61 9.28-4.73 5.5-15.07 13.8-18.72 15.02-1.77.6-4.12 1.85-5.22 2.8s-3.35 2.17-5 2.72a35 35 0 0 0-6.9 3.64c-3.53 2.4-4.75 2.64-13.49 2.64-7.27 0-10.38-.43-12.77-1.75l-7-3.9c-5.78-3.24-8.67-7.8-9.15-14.42-.48-6.67 1.58-11.51 5.53-13.02 2.23-.84 3.28-.53 6.87 2.05 2.33 1.67 5.14 3.04 6.24 3.04 2.7 0 6.94-5.25 7.76-9.6.97-5.19-.71-7.78-7.78-12-5.4-3.23-7.36-3.84-13.6-4.2-6.75-.4-7.8-.16-14.66 3.18-8.33 4.06-11.14 7-17.44 18.27-4.15 7.42-4.3 7.98-3.94 14.94.25 5.15.87 7.8 2.14 9.2a16 16 0 0 1 2.76 5.49c1 3.66 9.9 15.57 12.77 17.11.91.5 2.56 1.93 3.66 3.19 2.76 3.16 15.94 5.61 23.15 4.3 6.22-1.13 10.35.12 10.35 3.13 0 3.52-3.7 9.53-6.67 10.86a51 51 0 0 0-6.43 3.73c-3.03 2.08-5.22 2.56-13.84 3.09-7.22.44-10.4 1.02-10.76 1.97-.77 2.01 2.28 6.08 5.96 7.94 4.14 2.09 7.74 5.38 7.74 7.06 0 .72-1.74 2.41-3.86 3.75s-6.52 4.86-9.75 7.8c-3.24 2.95-7.24 6.21-8.89 7.25a18 18 0 0 0-4.23 3.6c-.67.94-2.92 2.02-5 2.4a24 24 0 0 0-7.28 2.96 41 41 0 0 1-8.5 3.83c-2.74.86-7.57 2.5-10.72 3.65-7.37 2.7-11.08 2.65-18.9-.3-11.1-4.17-13.53-5.66-15.28-9.33-1.7-3.55-.92-6.26 1.78-6.28 4.38-.02 8.7-2.42 12-6.67 3.4-4.34 3.63-5.11 3.63-11.74 0-6.49-.3-7.5-3.49-12-4.7-6.6-13.54-11.58-20.58-11.58-7.25 0-17.02 4.36-23.5 10.5-4 3.8-6.19 7.05-9.03 13.5-3.53 8.01-3.74 9.06-3.65 18.24.08 8.33.48 10.58 2.76 15.5a98 98 0 0 1 3.93 9.82 21 21 0 0 0 3.4 6.5c8.95 10.16 12.4 13.22 18.66 16.57l7 3.75 18 .67c9.9.37 18.11.73 18.25.8.14.09.25.97.25 1.98 0 1.13-2.72 3.78-7.08 6.88l-7.08 5.06-15.34.71c-17.86.84-21.82.34-29.86-3.74-6.9-3.51-12.95-4.45-17.96-2.8-5.77 1.9-8.43 4.6-9.2 9.31-.72 4.36-2.02 6.75-3.65 6.75-.5 0-3.03-1.92-5.62-4.26-6.96-6.3-12.92-10.14-20.21-13-16.68-6.54-17.49-6.59-27.12-1.54-8.28 4.33-11.8 8.39-12.51 14.38-1.3 10.93 2.69 16.39 19.09 26.16 6.09 3.63 12.44 11.67 17.32 21.93l3.72 7.83-.02 20-.02 20-3.85 11c-2.13 6.05-4.88 12.8-6.12 15a29 29 0 0 0-2.87 8.85c-.37 2.93-1.54 5.96-2.97 7.66-1.3 1.54-2.88 4.85-3.5 7.34-1.31 5.18-2.29 6.08-5.66 5.24-2.72-.69-4.47-5.42-4.49-12.09 0-2.42-1.19-6.37-3-10-1.65-3.3-3-7.15-3-8.55 0-4.53-5.11-13-12-19.88-7.63-7.63-9.24-8.4-21.01-10.1-7.48-1.07-9.4-1-15.77.55-7.2 1.75-7.32 1.83-13.24 9.25l-5.98 7.49v6.85c0 6.38.19 6.96 2.75 8.58 1.51.96 4.5 3.2 6.64 5a32 32 0 0 0 8.6 4.8c4.93 1.64 6.84 3.34 11.26 10.01 6.8 10.23 9 23.14 7.95 46.62-.79 17.6-1.44 19.88-5.7 19.88-2.63 0-3.8-1.26-5.32-5.8-.61-1.82-3.6-5.74-6.65-8.7-6.3-6.17-8.99-7.06-20.82-6.89-6.67.1-8.14.44-10.25 2.42-3.38 3.18-3.09 6.27 1.02 10.81a19 19 0 0 1 4.6 9.26c.63 2.97 2.02 6.86 3.1 8.64q1.97 3.24 2.86 12.5a398 398 0 0 0 2.09 17.26c1.5 10.04 1.48 35.74-.05 45-.64 3.85-1.57 14.42-2.08 23.5-1.08 19.29-2.06 23.73-5.47 24.58-3.1.78-6.34-.28-9.86-3.22-1.55-1.3-3.8-2.4-5-2.44s-4.87-.44-8.17-.88c-3.4-.45-9.9-.35-14.97.22-8.44.96-9.27 1.26-13.77 5.13-5 4.29-6.74 8.08-6.75 14.67 0 1.96.55 4.28 1.24 5.17 1.41 1.82 15.4 7.35 20.79 8.21 4.02.65 13.24 9.3 14.47 13.56.39 1.38 1.98 3.85 3.53 5.5 3.95 4.21 6.69 11.94 9.5 26.84 2.52 13.29 2.35 15.72-1.21 17.09-1.05.4-2.73-.13-4.28-1.36-4.83-3.82-16.6-9.96-21.07-10.99-2.46-.57-8.72-1.04-13.91-1.06-14.37-.03-20.58 3.94-25.21 16.1-4.94 13 .5 20.25 13.14 17.53 6.01-1.3 9.27-1.2 17 .47 3.85.84 7.7 2.42 9.44 3.9 5.65 4.79 10.77 10.51 12.64 14.16 1.04 2.03 2.78 4.3 3.86 5.07 2.5 1.75 5.5 8.73 8.06 18.75 3.68 14.42 2.36 17.6-6.06 14.58-4.18-1.5-6.7-1.67-16.54-1.05l-11.6.72-6.15 5.47c-6.3 5.6-11.03 13.64-10.44 17.72.43 2.93 5.83 6.11 12.7 7.46 3.33.66 8.42 2.26 11.32 3.57 6 2.7 19.81 15.03 24.27 21.66a149 149 0 0 0 6.73 9.02c2.08 2.56 4.5 6.38 5.38 8.5s2.2 4.55 2.96 5.4 2.07 3.51 2.92 5.92c.84 2.4 2.42 4.98 3.5 5.73 1.1.77 2.83 4.35 3.98 8.2 1.12 3.75 3.21 8.57 4.66 10.7 1.44 2.12 2.84 5.51 3.11 7.53.65 4.85-1.76 6.34-7.95 4.9-7.22-1.66-12.13-1.22-17.4 1.55-2.68 1.41-5.74 3.4-6.78 4.41-1.85 1.81-1.85 1.91.05 5.18 1.39 2.4 3.21 3.75 6.5 4.83 5.97 1.96 14.34 8.4 21 16.14 2.94 3.41 8.22 9.26 11.74 13 6.09 6.47 6.67 6.82 12 7.43 4.3.5 6.44 1.37 9.2 3.79 3.92 3.42 6.81 10.13 5.1 11.84-1.86 1.86-8.79-.23-14.16-4.27l-5.24-3.93h-22.65l-4.52 3.45a68 68 0 0 1-8.42 5.44c-8.13 4.15-14.15 13.89-14.19 22.96-.02 4.75.36 5.73 3.32 8.7 4.56 4.55 7.64 5.1 17.3 3.12 10.52-2.16 16.17-2.11 22.07.2a55 55 0 0 0 8.99 2.59c2.34.39 6.54 2.35 9.5 4.44 2.91 2.05 6.85 4.36 8.75 5.12 6.44 2.6 14.06 7.13 15.05 8.98.54 1.01 2.45 2.15 4.24 2.53 1.8.38 4.32 1.65 5.62 2.83 2.64 2.4 9.63 12.33 11.15 15.85a26 26 0 0 0 2.2 4c.67.93.94 1.97.6 2.31-.68.68-5.2-2.08-13.81-8.42-10.45-7.7-16.52-11.43-22.28-13.7-3.18-1.25-7.12-3.4-8.74-4.77-5.8-4.88-19.39-4.8-26.36.14-2.27 1.61-5.4 3.24-6.95 3.62-7.74 1.88-17.15 10.8-22.76 21.56-1.95 3.73-2.28 5.92-2.31 15.45-.05 11.8.88 15.06 5.89 20.6a26 26 0 0 1 3.63 5.46c1.9 4.07 9.75 8.73 15.64 9.27 3.87.36 5.75-.1 10.24-2.52 4.72-2.55 5.76-3.65 7.34-7.84 3.24-8.56 3.22-9.05-.48-11.38-2.89-1.82-4.33-2.04-10.26-1.54-7.5.64-10.6-.74-10.6-4.7 0-3.04 5.9-7.9 12.56-10.35 6.04-2.22 6.12-2.22 16.21-.53 7.35 1.23 10.78 2.29 12.44 3.84a13.5 13.5 0 0 0 4.93 2.8c1.45.36 3.9 1.96 5.44 3.57s3.38 2.92 4.1 2.92c1.86 0 25.31 20.8 33.74 29.92 2.24 2.43 5.88 6.03 8.08 8s5.57 5.19 7.5 7.16a64 64 0 0 0 8 6.64c11.2 7.63 11.63 13.2 1.03 13.27-4.79.02-22.77 10.01-28.72 15.95-8.33 8.3-10.74 14.15-11.13 27.06-.3 9.88-.14 10.89 2.68 17.07 1.9 4.18 4.46 7.81 7.04 10 11.89 10.07 14.97 11.91 19.89 11.92 9.7.02 22.43-13.7 20.79-22.4-.32-1.7-1.93-5.12-3.58-7.59-3.89-5.85-3.83-8.8.25-12.75 4.51-4.37 9.51-5.02 17.62-2.3 3.48 1.18 8.63 2.58 11.44 3.1 2.95.57 6.18 1.98 7.65 3.36 1.4 1.3 4.1 2.7 6 3.11 4.04.85 15.88 8.85 28.29 19.1 4.8 3.97 10.13 7.53 11.83 7.9 3.2.7 6.25 5.47 5.21 8.16-.27.7-4.25 3.11-8.85 5.35-7.04 3.42-9.62 5.41-16.26 12.58-6.91 7.46-8.22 9.49-10.54 16.32-3.17 9.37-3.36 16.18-.64 22.34 3.2 7.23 12.8 14.53 17.3 13.16 3.86-1.17 8.87-5.58 10.56-9.31 4.3-9.48 10.16-15.37 22.38-22.52 4.54-2.66 5.18-2.76 16-2.41 9.89.3 12.4.78 20.62 3.83 5.36 2 11.02 4.9 13.23 6.79 2.13 1.82 5.47 3.57 7.43 3.89 1.96.31 4.1 1.32 4.77 2.23s2.62 2.54 4.33 3.61c7.98 5 12.23 8.05 16.5 11.85 2.55 2.26 6.72 5.63 9.26 7.48 5.06 3.68 5.93 6.64 2.8 9.48a8.2 8.2 0 0 1-4.76 1.66c-1.6 0-7.3 1.54-12.67 3.42-12.12 4.23-17.2 8.45-23.87 19.82-4.1 7.01-4.84 9.04-4.86 13.53-.03 6.62 1.58 10.44 6.93 16.47 6.42 7.23 10.27 6.5 12.15-2.29 1.27-5.96 3.94-9.76 9.92-14.1 5.15-3.72 14.51-7.15 19.48-7.13 5.4.03 15.69 2.89 23 6.4 3.3 1.58 6.48 2.87 7.06 2.87.59 0 2.29 1.28 3.79 2.84s4.84 3.9 7.43 5.18c6.72 3.34 14.43 8.44 16.46 10.89a6.2 6.2 0 0 0 4.12 2.09c1.3 0 3.44.84 4.75 1.86a57 57 0 0 0 6.39 4.03c2.2 1.2 6.02 3.43 8.5 4.96a39 39 0 0 0 9.21 3.98c2.6.65 6.27 2.24 8.18 3.53q3.45 2.35 9.97 3.02a58 58 0 0 1 10.7 2.14c2.3.81 6.2 1.48 8.67 1.48 5.33 0 21-4.55 23.61-6.85 1.01-.9 3.92-2.76 6.46-4.14 3.87-2.1 5.3-3.8 8.89-10.51 4.83-9.04 5.07-10.5 2.43-14.88a39 39 0 0 1-3.07-6.86c-.67-2.08-3.43-5.97-6.23-8.75-4.43-4.4-5.54-5.01-9.2-5.01-5.15 0-8.13 1.98-9.57 6.36-1.24 3.75-.48 6.37 3.13 10.89 1.8 2.25 2.03 3.24 1.24 5.5-.91 2.59-1.33 2.75-6.93 2.75h-5.96l-3.27-4.99c-4.34-6.63-4.42-12.17-.29-20.3 3.68-7.25 5.07-8.51 12.26-11.2 3.15-1.18 6-2.56 6.31-3.08.95-1.54 11.3-1.06 14.68.68 1.71.89 4.94 2.14 7.16 2.79 3.26.94 5.52 2.9 11.5 10 7.01 8.3 7.53 9.25 8.74 15.96 1.76 9.84 1.68 19.44-.24 27.86-1.31 5.78-2.4 7.98-5.8 11.7-2.3 2.52-5.8 6.52-7.78 8.89-6.1 7.3-12.04 10.44-21.16 11.13-6.62.51-8.15.98-9.75 2.94-2.47 3.06-2.39 3.66 1.4 9.97 3.17 5.27 3.35 5.4 13.21 8.82 8.94 3.1 11.22 3.49 21.5 3.65 10.24.16 12.02-.08 16.24-2.15 2.6-1.29 7.1-2.67 10-3.07s6.24-1.26 7.44-1.91c3.99-2.17 6.15-1.45 8.29 2.74 1.1 2.16 2.45 4.2 2.99 4.54s1.45 2.28 2.02 4.32c.65 2.32 3.46 6.25 7.47 10.46 6.4 6.71 6.46 6.75 11.85 6.75 4.68 0 6.05-.49 10.16-3.62 2.61-2 5.37-5.12 6.13-6.94a47 47 0 0 1 3.76-6.81 23 23 0 0 0 3.06-7.77c.37-2.34 1.16-4.85 1.76-5.56 1.67-2.01 5.1-1.54 8.83 1.2 2.55 1.88 4.63 2.5 8.44 2.51 3.7.01 6.26.74 9.56 2.72 4.18 2.51 5.31 2.7 16 2.73 9.25.03 12-.3 14.02-1.67a38 38 0 0 1 7-3.3c2.46-.86 6.28-3.33 8.48-5.47a344 344 0 0 1 6.75-6.42c1.51-1.38 2.74-3.32 2.74-4.3-.04-3.87-1.47-4.53-9.54-4.4-6.16.09-8.75-.35-12.35-2.1-5.1-2.47-20.08-16.48-20.1-18.8 0-.83-1.43-4.2-3.18-7.5-2.61-4.92-3.26-7.44-3.6-14-.51-9.53 1-18.7 3.64-22.06a16 16 0 0 0 2.56-5.88c.8-4.26 11.17-14.1 15.94-15.13a35 35 0 0 0 6.85-2.55c4.91-2.49 8.88-2.37 17.15.53 10.63 3.72 20.64 14.8 20.64 22.82 0 4.4-4.5 14.43-7.09 15.82-2.25 1.2-6.88 1.47-9.66.55-3.51-1.15-4.27-3.57-2.52-8.1.84-2.2 1.74-6.12 2-8.7.4-4.05.1-5.06-2.1-7.25-3.38-3.4-9.01-3.46-13.49-.16-10.28 7.6-13.19 12.78-12.66 22.61.14 2.47.31 5.98.38 7.8.1 2.4 1.33 4.56 4.57 8.03 4.7 5 17.04 12.17 21 12.17 1.27 0 5.86 1.17 10.2 2.6 8.63 2.83 14.74 2.81 20.32-.07 1.68-.87 6.18-1.98 9.99-2.46 4.9-.61 7.9-1.6 10.24-3.38 1.84-1.4 5.46-2.83 8.1-3.22 3.4-.5 6.43-1.95 10.5-5.04 11.43-8.65 12.56-9.43 13.8-9.43.7 0 3.66-2.06 6.59-4.58s7-5.45 9.06-6.51a21 21 0 0 0 6-5.02c3.52-4.79 15.21-9.83 27.74-11.97 10.2-1.74 10.86-1.74 18.73.01 6.4 1.43 9.14 2.63 12.73 5.57 2.51 2.06 4.57 4.32 4.57 5.04 0 1.98 10.29 13.46 12.06 13.46 1.7 0 6.09-4.28 7.7-7.5.77-1.56 1.03-19.22.36-25.06-.07-.58-3.39-4.48-7.38-8.66-9.34-9.76-15.62-12.83-27.74-13.53-10.8-.62-12-1.25-12-6.2 0-3.72.26-4.02 6.25-7.38 3.44-1.92 7.37-4.69 8.73-6.14a34 34 0 0 1 6-4.8 36 36 0 0 0 6.17-4.94c1.46-1.53 3.23-2.79 3.95-2.79.7 0 2.46-1.12 3.9-2.5 1.51-1.45 4.58-2.86 7.36-3.37 2.62-.5 5.75-1.8 6.95-2.9 3.14-2.86 7.65-4.97 17.76-8.3 7.8-2.57 10.3-2.93 20.65-2.92 10.42 0 12.36.29 16.78 2.44 8.62 4.18 12.16 8.53 20.15 24.77 3.7 7.54 5.57 8.6 12.01 6.87 2.8-.75 5.24-2.58 8.5-6.36 7.65-8.85 8.17-17.2 1.98-31.5-1.6-3.7-3.22-7.73-3.59-8.95-.37-1.23-2.1-3.22-3.86-4.43a37 37 0 0 1-5.9-5.4c-3.09-3.62-12.2-8.47-18.68-9.95-2.42-.55-4.9-1.8-5.5-2.76-1.63-2.59 1.1-6.78 5.4-8.26 3.57-1.23 8.76-4.35 14.99-9.01 1.92-1.44 6.65-4.82 10.5-7.5s8.26-5.84 9.8-7.03c1.53-1.19 4.88-2.8 7.44-3.56s5.58-2.23 6.7-3.23c1.14-1 6.04-3.25 10.91-4.99 13.83-4.94 23.12-4.16 28.1 2.35l2.55 3.36-3.98 7.32c-2.2 4.02-4 8.16-4 9.2-.03 3.6 4.34 10.6 9.15 14.66 10.22 8.62 15.32 9.21 23.07 2.7 10.9-9.17 12.3-11.02 15.1-20.03 3.36-10.76 3.34-15.72-.09-26.54-2.48-7.82-3.35-9.26-8.91-14.77-3.4-3.36-8.35-7.13-11-8.38a72 72 0 0 1-8.84-5.07c-2.2-1.54-5.43-3.08-7.18-3.44-5.05-1.03-5.92-2.87-3.17-6.73 1.96-2.77 15.17-16.23 21.52-21.94 1-.9 9.02-8.94 17.81-17.84s17.65-17.06 19.7-18.1a30 30 0 0 0 6.22-4.4c1.38-1.38 3.05-2.51 3.71-2.51s2.7-1.15 4.55-2.55c1.9-1.46 5.6-2.93 8.6-3.42a53 53 0 0 0 8.24-2.02c7.72-2.99 20.58 1.2 25.25 8.23 2.89 4.35 2.85 4.82-.77 8.28-2.86 2.74-3.22 2.83-7.25 1.75a84 84 0 0 1-5.79-1.73c-.85-.33-3.1.44-5 1.71-2.85 1.92-3.5 3.02-3.74 6.4-.28 3.82.1 4.48 5.83 10.22 6.02 6.02 6.23 6.13 11.62 6.13 4.46 0 6.3-.56 9.83-2.99 6.98-4.8 13.32-12.9 14.14-18.07a40 40 0 0 1 2.52-8.44 19.3 19.3 0 0 0 0-16.01c-1-2.2-2.12-5.58-2.48-7.5-1-5.34-14.26-18.49-20.66-20.48a19 19 0 0 1-5.2-3.05c-5.45-4.55-21.67-4.4-28.56.28a46 46 0 0 1-9.08 4.38c-6.48 2.23-15.5 7.22-19.95 11.05-1.8 1.56-3.92 2.83-4.7 2.83s-2.35.99-3.48 2.2c-1.49 1.6-2.34 1.9-3.15 1.08-1.89-1.89 3.72-10.68 9.9-15.49 3.02-2.36 6.9-5.46 8.6-6.9a47 47 0 0 1 6.12-4.26c1.65-.91 3.67-2.08 4.5-2.59 15.04-9.36 18.72-11.06 26-12.02a94 94 0 0 0 12.4-2.5c6.32-1.95 11.2-1.89 21.1.29 9.75 2.13 11.64 1.9 15.5-1.95 2.82-2.83 3-3.48 3-10.79 0-4.27-.46-9.1-1.03-10.74-1.28-3.67-8.38-9.72-14.47-12.33a45 45 0 0 1-8.58-5.19c-3.93-3.15-4.23-3.22-12.93-2.99-9.18.25-15.13 1.75-19.8 5-6.08 4.24-12.19 3.35-12.19-1.76 0-3.2 2.21-5.06 5.98-5.06 1.16 0 3.1-1.06 4.32-2.36a23 23 0 0 1 5.2-3.92c1.65-.87 7.4-5.88 12.8-11.15 5.38-5.26 10.17-9.57 10.64-9.57s1.78-1.55 2.9-3.44c2.73-4.64 10.6-10.2 16.43-11.62 5.05-1.22 7.08-3.46 6.54-7.21-.48-3.37-12.41-8.8-22.3-10.14-9.06-1.24-9.14-1.35-8.04-10.17.45-3.62 1.56-6.44 3.48-8.86a20 20 0 0 0 3.53-7.3c.38-2.07 1.06-4.21 1.5-4.76s2.44-4.1 4.44-7.9c2-3.79 4.75-8.2 6.11-9.82 1.36-1.61 2.47-3.55 2.47-4.31 0-.77 2.59-4.5 5.75-8.32 3.16-3.8 7.46-9 9.55-11.54s5.24-5.35 7-6.26c1.76-.9 3.74-2.42 4.4-3.36 1.7-2.4 9.64-5.61 17.3-6.99 3.58-.64 7.29-1.87 8.25-2.74 2.6-2.34 2.24-7.89-.75-11.44-1.37-1.64-2.5-3.54-2.5-4.24s-2.81-3.86-6.25-7.03l-6.25-5.77-16.77.46-16.77.47-.6-2.38c-.34-1.38.24-4.35 1.4-7.1 1.09-2.6 2.27-5.96 2.63-7.45s1.76-4.38 3.13-6.4a33 33 0 0 0 3.65-7.55c1.48-4.95 9.55-14.48 18.6-21.98 3.86-3.2 12.96-4.42 24.64-3.33 9.2.87 11.58-.3 14.1-6.93 1.68-4.38 1.67-4.62-.55-9.98-1.43-3.45-4.28-7.47-7.65-10.8l-5.38-5.31h-16.9c-16.08 0-17.02.1-19.7 2.28-7.2 5.8-15.4 7.83-17.3 4.29-1.5-2.81-1.26-11.58.42-15.6.8-1.91 1.92-6.06 2.5-9.22s1.89-6.87 2.9-8.25a55 55 0 0 0 3.65-6c2.45-4.75 12.38-15.87 15.7-17.6 1.49-.77 4.19-1.4 6-1.4 7.52 0 15.86-4.33 17.93-9.31.98-2.38.83-3.48-.98-7.11-1.18-2.37-2.15-5.23-2.15-6.36 0-3.06-4.55-7.9-8.78-9.37-4.7-1.62-27.16-1.62-32.86 0-2.42.68-4.82 2.2-5.77 3.66a5 5 0 0 1-4.36 2.48c-4.94-.03-5.47-1.08-6.37-12.5-.45-5.9-1.3-14.15-1.86-18.35-2.63-19.64-3.13-27.15-3.17-47.64-.04-19.17.23-23.22 2.13-31.5 1.2-5.23 2.59-11.87 3.07-14.77.63-3.82 1.92-6.55 4.67-9.9 3.45-4.22 3.8-5.18 3.8-10.61 0-5.3-.3-6.2-2.67-7.99-2.46-1.85-3.32-1.93-10.64-1-7.63.98-8.23 1.25-14.5 6.57-7.21 6.12-9.84 8.48-13.92 12.48-2.61 2.57-2.8 2.61-4.5.92-1.6-1.6-1.77-4.22-1.74-27.99.02-22.73.25-26.6 1.71-29.21.93-1.65 2.6-4.86 3.72-7.13 3.51-7.16 7.98-10.4 25.62-18.56 4.54-2.1 6.55-8.96 4.5-15.41-.5-1.6-1.19-4.14-1.52-5.65s-2.57-4.81-4.97-7.32c-4.1-4.27-4.85-4.63-11.73-5.6-8.94-1.27-22.73-.47-26.56 1.54-5.76 3.02-14.88 14.5-20.2 25.4-3.37 6.93-3.88 9.03-4.9 20.24-1.2 13.14-2.6 18.99-4.58 18.99-1.46 0-5.71-2.88-7.31-4.95-.65-.85-1.5-3.35-1.87-5.55-.84-4.94-2.85-9-6.58-13.28-1.78-2.05-2.86-4.42-2.86-6.29 0-1.64-1.07-5.56-2.37-8.71a51 51 0 0 1-3-11.45 40 40 0 0 0-3.74-11.82c-5.45-10.74-5.18-23.9.7-32.95 1.28-1.98 2.56-5.98 2.95-9.22.38-3.15 1.34-6.27 2.14-6.93s2.3-2.82 3.32-4.78c2.51-4.82 12.09-13.8 15.63-14.68 1.58-.38 4-1.56 5.37-2.6 1.38-1.05 4.66-3.5 7.3-5.44 5.54-4.07 6.7-6.44 6.7-13.72 0-9.42-7-16.17-21.27-20.52l-6.77-2.06-9.23 3.08c-5.08 1.7-10.13 3.54-11.23 4.1-4.97 2.49-11.47 7.47-12.41 9.52-1.14 2.45-4.25 2.99-5.85 1-.56-.69-1.31-2.67-1.68-4.4s-1.43-3.82-2.37-4.65c-2.44-2.17-8.99-4.7-12.16-4.7-2.87 0-10.5 2.46-18.03 5.8-2.52 1.13-8.02 2.3-12.5 2.66-10.3.84-29.47-.88-33.59-3-4.33-2.25-12.91-8.48-12.91-9.4 0-2.09 6.1-3.06 19.3-3.06 13.04 0 14.48-.2 17.6-2.25 8.61-5.68 19.1-13.8 19.1-14.78 0-.43 1.58-2.67 3.5-4.97s3.5-4.78 3.5-5.5 1.76-3.64 3.9-6.5c3.63-4.82 3.95-5.8 4.6-14.04 1.1-13.85.18-17.85-6.29-27.3-7.16-10.48-9.36-12.6-16.99-16.48-5.03-2.54-7.5-3.18-12.4-3.18-8.34 0-17.55 4.55-22.96 11.34-3.55 4.46-3.86 5.34-3.86 11.1v6.27l5.4 5.1c6.18 5.85 9 6.87 14.21 5.15 3.3-1.08 3.88-1.02 5.06.6 2.05 2.8 1.62 4.8-2.05 9.44-5.1 6.44-19.54 12-31.18 12-5.05 0-25.4-7.7-28.86-10.9-1.14-1.07-3.78-2.25-5.85-2.64-2.08-.38-4.33-1.47-5-2.42a13 13 0 0 0-3.73-3.02c-4.19-2.17-12.43-9.6-15.39-13.86-3.6-5.2-2.9-7.5 3.01-9.76a33 33 0 0 0 6.95-3.64c2.61-2.05 3.21-5.88 1.18-7.53-.69-.56-6.2-1.18-12.25-1.38-11.5-.39-10.68-.12-20.67-6.57-2.86-1.85-5.83-7.1-5.83-10.31 0-1.72.7-1.97 5.55-1.97 3.05 0 6.77-.63 8.25-1.4s5.4-1.73 8.7-2.14c6.38-.8 6.12-.63 17-11.24 10.2-9.95 10.93-11.64 11.32-26.49l.34-12.76-4.5-6.83c-4.32-6.55-9.74-12.14-11.79-12.14-.54 0-2.63-1.12-4.65-2.5-2.85-1.93-4.96-2.5-9.3-2.5-4.9 0-6.23.46-10.26 3.53-2.54 1.94-5.08 4.39-5.64 5.44-1.41 2.63-1.28 13.37.18 14.83 2 2 6.29 1.38 8.8-1.3 2.55-2.72 6.64-3.27 9.2-1.25 2.5 1.98 4.08 8.37 3.32 13.44-.5 3.32-1.62 5.48-4.2 8.06-5.4 5.4-12.3 10.38-15.72 11.37-7.5 2.14-23.88.38-28.24-3.05a24 24 0 0 0-6.17-3.16 24 24 0 0 1-6.52-3.56c-1.55-1.29-3.67-2.35-4.7-2.35s-3.34-1.82-5.13-4.04a71 71 0 0 0-8.4-8.3c-6.38-5.25-17.3-17.12-23.94-26.03a355 355 0 0 0-7.75-10.05c-1.51-1.84-2.75-3.85-2.75-4.46s-1.48-2.8-3.28-4.87a84 84 0 0 1-6.18-8.25c-3.9-6.08-9.87-13.28-16.73-20.16-6.59-6.6-15.5-13.84-17.05-13.84-.6 0-2.58-1.15-4.42-2.55a28 28 0 0 0-6.6-3.66 23 23 0 0 1-5.49-2.84c-1.56-1.2-5.1-1.95-11.5-2.43-5.09-.38-11.95-1.37-15.25-2.2-6.24-1.58-10.99-1.4-20.68.79-4.39.98-6.27 1-8.25.1-2.46-1.12-2.57-1.52-2.57-9.55 0-7.1-.34-8.82-2.17-11.15-2.71-3.45-7.54-5.51-12.9-5.51-3.35 0-4.69-.6-7.1-3.18-2.17-2.33-2.78-3.73-2.28-5.25 1.77-5.29 1.5-10.1-.8-14.07-2.27-3.94-2.4-4-9.12-4.5l-6.81-.5-3.4-6.5c-1.88-3.58-3.41-7.46-3.41-8.64-.01-2.66-2.24-5.27-7.91-9.26-4.56-3.21-8.16-3.82-11.6-1.95m-1.44 18.27c-1.85 2.23-1.83 34.21.02 38.08 1.55 3.23 4.95 4.4 6.64 2.3 1.32-1.66 3.82-10.47 5.27-18.62.84-4.74.83-7.72-.04-11.94-1.78-8.55-8.4-14.02-11.89-9.82m-21.53 33.53c-.97 1.57.57 6 2.56 7.4 1.03.72 2.57 2.98 3.42 5.01 1.83 4.38 5.62 6.6 7.96 4.67 2.85-2.37 1.7-5.57-4.26-11.89-5.48-5.8-8.35-7.35-9.68-5.19m46.1 5.37c-3.89 3.63-4.63 4.9-4.63 8 0 2.35-.73 4.4-2 5.68-2.05 2.05-2.7 6.45-1.11 7.43 1.4.87 2.92-1.64 3.28-5.43.26-2.76.81-3.57 2.6-3.82 1.26-.18 3.01-1.53 3.91-3 .9-1.48 2.75-4.36 4.1-6.4 2.49-3.77 2.44-6.78-.11-6.78-.77 0-3.48 1.94-6.03 4.32m20.8 13.1c-1.68.72-5.17 3.74-7.75 6.69-7.05 8.06-6.02 11.14 2.31 6.89 2.16-1.1 4.73-2 5.71-2 .99 0 3.43-.47 5.42-1.02 7.23-2 7.77-12.03.64-11.94-1.8.02-4.65.64-6.33 1.37m-90.69.62c-2.38 1.45-2.2 5.47.33 7.83 1.14 1.06 4.02 2.23 6.38 2.58s5.1 1.51 6.05 2.57 3.2 2.4 4.99 2.99c3.33 1.1 10.5 8.7 12.65 13.43 2 4.4 8.85 4.33 8.85-.08 0-2.08-18.6-20.35-20.7-20.34-1 0-3.6-2.04-5.8-4.54-4.25-4.84-9.25-6.58-12.75-4.44m-55.25 23.91c-1.65.4-5.23 2.16-7.95 3.9s-5.7 3.16-6.6 3.16c-.93 0-3.37 1.35-5.45 3s-4.28 3.01-4.89 3.03c-1.82.04-18.53 16.63-22.36 22.19a41 41 0 0 0-4.99 10.7 63 63 0 0 1-4.35 11.07c-2.47 4.68-2.9 6.66-2.9 13.11-.01 6.3.44 8.44 2.61 12.5a87 87 0 0 1 4.51 10.33c2.55 7.36 4.89 11.1 11.64 18.7 6.86 7.71 13.13 11.92 19.23 12.9a53 53 0 0 1 9.29 2.6c5.81 2.27 13.5 2.38 20.21.29a123 123 0 0 1 13.06-2.91c5.7-.96 9.8-2.37 14.01-4.84 5.77-3.38 17.43-14.46 17.43-16.56 0-.57 1.33-2.56 2.96-4.41 2.53-2.89 3.12-4.67 4.05-12.37.76-6.23.8-11.98.1-18.73-.91-8.9-1.27-10.05-4.3-13.52a183 183 0 0 1-6.1-7.43c-1.54-2-5.36-5.55-8.5-7.87-4.93-3.64-6.73-4.35-13.21-5.18-16.06-2.07-26.35-.81-33.66 4.12-5.9 3.99-6.17 4.64-7.01 16.5-.5 6.97-.27 9.64 1.12 13.27 2.24 5.89 5.36 7.51 14.43 7.51 6.55 0 7.2-.2 10.55-3.37 6.05-5.7 4.3-10.63-3.76-10.63-5.72 0-5.8-3.74-.18-9 2.27-2.13 3.8-2.54 10.5-2.85l7.83-.35 4.6 4.22c2.51 2.33 4.58 4.7 4.58 5.27s1.32 3.1 2.94 5.62c5.7 8.88 6.14 18.12 1.2 24.5a82 82 0 0 0-4.37 6.24c-4.76 7.84-8.74 12.04-14.33 15.11-11.32 6.22-12.65 6.64-22.03 7.04l-9.08.38-9.95-4.99c-10.6-5.32-17.72-11.65-19-16.88-.37-1.55-1.94-5.19-3.47-8.1-4.94-9.33-4.75-18.39.58-29.21a34 34 0 0 0 2.76-8c1.07-6.9 12.93-21.55 21.54-26.61a52 52 0 0 1 9.4-4.04c2.82-.84 6.44-2.5 8.04-3.69 2.63-1.94 4.4-2.19 17.1-2.45 12.53-.25 14.58-.06 17.67 1.67a237 237 0 0 0 9.69 4.95c12.86 6.22 22.45 14.28 26.89 22.6 1.49 2.78 3.5 5.97 4.48 7.07 3.72 4.18 5.55 23.57 3.5 37.12-1.3 8.68-2.1 11.02-5.54 16.5-6.41 10.17-7.36 13.88-3.53 13.88 3.86 0 15.51-10.1 15.51-13.43 0-.75 1.77-3.73 3.93-6.6 4.73-6.3 5.52-11.24 4.9-30.93-.4-12.8-.44-12.99-3.66-17.24a45 45 0 0 1-4.72-7.8c-4.5-10.76-17.21-25.6-24.59-28.7a29 29 0 0 1-5.56-3.28c-1.41-1.11-3.35-2.02-4.3-2.02s-4.37-1.36-7.6-3.02a43 43 0 0 0-12.9-3.97c-8.13-1.1-27.63-1.14-32-.07m176.28.03c-2.6.47-6.12 1.85-7.83 3.06a31 31 0 0 1-7.27 3.5c-6.75 2.08-15.12 6.75-18.82 10.49-1.9 1.91-5.13 5-7.19 6.85a61 61 0 0 0-6.46 6.94 70 70 0 0 1-4.8 5.68c-1.15 1.15-2.4 4.08-2.8 6.5a25 25 0 0 1-2.54 7.46c-2.66 4.39-4.07 12.3-4.07 22.85 0 8.02.36 9.97 2.83 15.2 1.56 3.3 3.13 7.16 3.48 8.58.35 1.41 1.89 3.96 3.42 5.66 1.52 1.7 4.35 5.2 6.27 7.77 6.15 8.25 8.96 9.96 11.74 7.18 2.18-2.18.86-6.22-2.73-8.34-2.05-1.22-3.42-3.18-4.39-6.3-.77-2.5-2.6-7.88-4.07-11.95-2.27-6.3-2.67-9.03-2.67-18.2 0-9.74.29-11.45 2.95-17.6 1.62-3.74 3.25-7.8 3.61-9 .37-1.22 3.56-5.27 7.1-9s6.44-7.1 6.45-7.48c.02-1 13.96-9.27 17.97-10.66 1.9-.66 4.52-2.2 5.83-3.43 2.28-2.14 3.12-2.23 20.71-2.23 17.3 0 18.47.12 20.67 2.12 1.28 1.17 5.4 3.57 9.14 5.33 7.54 3.55 19.18 14.07 22.19 20.05a76 76 0 0 0 5.27 8.33l3.52 4.83-.15 15.53c-.14 15.23-.2 15.64-3.15 21.17-5.15 9.63-12.3 16.44-22.27 21.22-7.9 3.78-9.72 4.25-18 4.65l-9.22.45-9.6-4.93c-7.32-3.76-10.9-6.35-15.13-10.95l-5.54-6.03-.71-9.03c-.4-4.97-.4-13.02-.01-17.89.67-8.4.89-9.04 4.35-12.68 4.97-5.24 8.1-6.67 14.52-6.67 6.75 0 9.1 1.84 8.19 6.41-2.31 11.52-1.68 14.62 3.76 18.34 2.46 1.68 4.73 2.25 8.94 2.25 5.18 0 6.1-.36 10.94-4.3 10.8-8.8 10.02-19.45-2.42-32.8-3.75-4.03-4.94-4.68-9.47-5.2-2.85-.32-7-1.51-9.21-2.64q-7.67-3.93-12.98 0c-1.54 1.14-5.23 2.4-8.21 2.8-10.16 1.4-17.5 8.64-24.46 24.14-.86 1.93-2.44 5.07-3.51 7-1.5 2.69-1.95 5.45-1.95 11.87 0 8.13.15 8.67 5.56 19.62 4.64 9.4 6.67 12.32 12.25 17.64 7.55 7.19 10.9 9.06 20.19 11.29 3.58.86 8.96 2.24 11.97 3.07 7.49 2.07 11.31 1.9 20.04-.86 4.12-1.3 9.51-2.7 11.99-3.11s7.04-2.27 10.14-4.14c6.27-3.77 16.76-14.43 19.86-20.16a52 52 0 0 1 4.15-6.4c2.7-3.38 4.28-18.9 3.35-32.69-.68-10.04-1.6-13.48-4.43-16.63a18 18 0 0 1-2.91-5.34c-1.33-3.99-2.9-5.86-14.78-17.63-8.89-8.8-15.32-13.55-20.38-15.02-1.37-.4-4.72-2.13-7.44-3.84l-4.93-3.12-16.07-.21c-8.83-.12-18.19.17-20.78.63m106.8 71.6c-2.27 2.27-1.94 6.94.82 11.75 1.56 2.73 2.83 7.3 3.63 13.18 1.92 14.07 7.11 29.8 11.4 34.56 1.97 2.17 3.57 4.6 3.57 5.42 0 2.56 22.65 27.31 30.44 33.27 2.94 2.25 9.89 3.14 10.96 1.42.68-1.12-3.65-7.5-9.3-13.72-2.53-2.77-5.37-6.37-6.32-8a106 106 0 0 0-7.53-11.32c-1.79-2.43-3.7-6.1-4.25-8.14s-2.02-5.01-3.25-6.58c-2.9-3.66-10.75-19.4-10.75-21.52 0-.89-.9-2.77-2.01-4.17-1.1-1.41-3.27-5.63-4.82-9.39-2.5-6.1-9.6-18.33-10.63-18.33-.22 0-1.1.7-1.97 1.57m-363.6 8a18 18 0 0 0-.97 3.1c0 .3-1.1 1.85-2.44 3.44-1.35 1.6-2.74 4.9-3.11 7.37s-2.04 6.62-3.7 9.25c-4.63 7.26-10.75 20.37-10.75 23.01 0 1.3-1.13 3.48-2.5 4.86-2.4 2.39-4.54 5.83-9.03 14.45-2.06 3.96-11.27 14.55-21.72 25-3.16 3.16-5.75 6.24-5.75 6.85 0 1.9 3.09 1.2 6.18-1.4 1.64-1.37 4-2.5 5.26-2.5s3.98-1.35 6.06-3 4.17-3 4.65-3c.92 0 8.85-7.02 14.68-13a67 67 0 0 0 6.66-8.5c1.8-2.75 4.82-6.88 6.74-9.17 2.4-2.88 3.67-5.59 4.1-8.75a32 32 0 0 1 2.53-8.33 34 34 0 0 0 2.63-8.25c.4-2.47 2.26-9.09 4.12-14.7 3.55-10.67 4.2-16.09 2.19-18.1s-4.79-1.37-5.82 1.37m265.69 4.1c-1.42 1.41-.55 4.38 2.08 7.15a35 35 0 0 1 3.75 4.58c1 1.68 12.47 4.88 17.5 4.88 1.38 0 5.88-.75 10-1.66 8-1.78 13-5.5 13-9.67 0-2.9-2.03-3.28-8.13-1.55-10.82 3.07-26.99 2.05-31.81-2-2.83-2.39-5.12-3-6.4-1.73M677 213.07c0 .6 1.16 3.05 2.58 5.47 2.77 4.74 3.12 4.87 14.92 5.87 8.29.7 19.17-.65 21.15-2.63 2.26-2.26 1.06-6.39-2.09-7.18-1.35-.34-6.05.11-10.43 1-7.95 1.6-8 1.6-16-1-8.96-2.9-10.13-3.07-10.13-1.53m123.38 16.68c-.92 1.51-2.53 4-3.59 5.54-1.05 1.55-1.77 4-1.6 5.5.3 2.54.72 2.76 6.96 3.56 8.56 1.1 12.2-.36 12.66-5.1.3-3-3.07-9.12-6.3-11.49-2.39-1.74-6.48-.74-8.13 1.99m165.26 16.28c-1.64 2.77-3.42 4.92-8.71 10.5-4 4.22-2.04 6.93 6.1 8.47a34 34 0 0 1 9.96 4c2.56 1.64 6.2 3.27 8.08 3.63a28 28 0 0 1 6.2 2.05c3.55 1.78 4.5.02 2.27-4.25-.84-1.61-1.53-3.5-1.53-4.21 0-.7-1.59-2.86-3.51-4.79-1.92-1.92-3.5-4.32-3.5-5.33s-.84-2.9-1.86-4.22a43 43 0 0 1-3.52-5.63c-1.37-2.66-2.26-3.25-4.93-3.25-2.57 0-3.64.64-5.05 3.03m-331.71 3.22c-.73 1.79-3 5.28-5.07 7.75-4.43 5.32-6.03 11.78-3.45 13.93 2.2 1.82 9.12.79 12.75-1.89 1.57-1.16 5.44-2.61 8.6-3.22 9.25-1.79 12-5.88 6.35-9.48a164 164 0 0 1-8.46-6.09c-6.77-5.17-8.95-5.37-10.72-1m-65.48 5.73c-8.06 7.91-12.74 13.2-16.34 18.52-10.7 15.77-49.68 53.79-59.23 57.78-1.9.79-5.01 3.09-6.91 5.1-2.12 2.25-5.02 4.07-7.47 4.68a52 52 0 0 0-8.11 2.97c-3.68 1.76-6.28 1.97-24.88 1.97-18.61 0-21.1-.2-23.9-1.9a25 25 0 0 0-6.34-2.57c-2.32-.49-4.14-1.99-6.49-5.35-3.13-4.5-3.26-5.06-3.27-14.39l-.01-9.7 5.25-4.86c5.66-5.23 6.1-6.25 3.68-8.66-5-5-18.31 2.97-20 11.97-.37 1.97-.47 7.45-.22 12.18l.45 8.6 5.08 4.59c2.8 2.52 5.6 5.6 6.2 6.84.62 1.23 2.92 3.16 5.1 4.27a32 32 0 0 1 7.4 5.75l3.4 3.73 20.26.33c11.15.18 21.8.04 23.67-.31 1.9-.36 5.25-2.33 7.57-4.46 2.3-2.11 5.72-4.13 7.66-4.52 4.46-.9 20-8.33 20-9.57 0-.52 2.21-2.06 4.91-3.43 5.62-2.84 15.4-11.62 29.09-26.08 9.5-10.04 11.43-12.3 18-21.06 1.92-2.57 5.41-6.87 7.75-9.57s4.25-5.52 4.25-6.29c0-.76 1.06-2.66 2.36-4.21 1.29-1.56 2.89-4.48 3.55-6.5s1.84-4.21 2.64-4.87c1.56-1.3 1.96-4.53.65-5.34-.44-.27-3.03 1.7-5.75 4.36m471.04.03c-.6 1 2.74 12.38 4.28 14.51.4.57 1.91 1.78 3.36 2.7a8.6 8.6 0 0 1 3.31 4.4c.38 1.51 1.67 4 2.88 5.51 1.2 1.53 3.76 4.88 5.68 7.46 1.92 2.57 5.3 6.8 7.5 9.4s6 7.28 8.42 10.4c5.12 6.56 13.43 14.02 24.08 21.64 4.13 2.95 8.98 6.62 10.79 8.16 1.8 1.55 3.88 2.81 4.61 2.81s2.5.92 3.91 2.03c1.42 1.12 4.62 2.65 7.11 3.4a30 30 0 0 1 8.3 4.32c7.32 5.74 7.4 5.75 27.28 5.69 23.04-.08 25-.44 29.63-5.45 2-2.16 5.05-4.39 6.8-4.97 4.7-1.55 12.54-9.96 13.62-14.63 1.23-5.31 1.17-23.05-.1-27.61-.56-2.05-2.01-4.4-3.21-5.25-2.8-1.96-10.1-2-11.7-.07-1.48 1.78-.53 6.89 1.6 8.65 6.03 5.01 6.52 18.45.96 26.72-1.7 2.54-4.22 5.15-5.6 5.8-12.43 5.85-10.71 5.56-30.27 5.16-16.44-.34-18.62-.59-22.23-2.56a29 29 0 0 0-7.86-2.77c-2.18-.33-4.8-1.62-6.04-2.95-1.2-1.29-4.79-3.5-7.97-4.91-8.44-3.73-13.96-8.28-32.12-26.46-6.8-6.79-14.07-14.58-16.18-17.3-2.1-2.74-7.09-8.65-11.07-13.15s-7.72-9.63-8.3-11.4c-.6-1.75-1.94-3.47-3-3.8-1.05-.34-2.7-1.62-3.68-2.85q-3.59-4.52-4.79-2.63m-270.99 8.93c-15.4 1-27.44 2.74-35 5.05-3.67 1.12-10.66 2.04-18 2.37-9.37.41-13.43 1.06-18.5 2.97a82 82 0 0 1-13.59 3.54 82 82 0 0 0-13.57 3.54 75 75 0 0 1-13.43 3.4 41 41 0 0 0-13.76 4.58c-3.75 1.98-8.26 3.61-10.02 3.61s-4.99.92-7.17 2.04a43 43 0 0 1-8.74 3.1c-2.63.57-6.13 2.18-7.78 3.56-1.65 1.4-5.67 3.36-8.92 4.37a51 51 0 0 0-9.95 4.39c-2.22 1.4-4.41 2.54-4.88 2.54s-2.98 1.41-5.6 3.14c-2.6 1.73-6.77 3.53-9.25 3.99s-5.86 1.97-7.5 3.36c-1.65 1.38-3.58 2.51-4.3 2.51s-4 1.8-7.3 4-6.48 4-7.08 4-2.61 1.34-4.47 2.97a41 41 0 0 1-7.79 5.08c-9.4 4.5-12.97 6.62-16.12 9.62a38 38 0 0 1-6.28 4.76c-5.16 2.85-11.88 7.66-24 17.2-3.85 3.02-8.9 6.64-11.24 8.02a53 53 0 0 0-7.6 5.69c-1.86 1.74-7.1 6.54-11.66 10.66-11.4 10.33-42.98 41.9-51.57 51.55-10.32 11.59-19.76 22.64-21.45 25.1-.82 1.17-4.05 5.48-7.19 9.57s-6.19 8.53-6.77 9.86-2.83 4.65-4.99 7.37a80 80 0 0 0-6.62 10 46 46 0 0 1-5.48 8.05c-1.53 1.65-4.68 6.6-7 11-2.3 4.4-5.45 9.43-6.97 11.18-1.52 1.74-3.08 4.6-3.46 6.33-.66 3.01-8.28 16.84-11.01 19.99-.72.83-1.8 3.35-2.4 5.62a22 22 0 0 1-3.06 6.62c-3.1 3.92-9.07 15.76-10.74 21.25-.83 2.75-2.78 6.45-4.33 8.21a15.5 15.5 0 0 0-3.52 8 34 34 0 0 1-2.57 8.52 45 45 0 0 0-2.98 9 34 34 0 0 1-3.95 9.63 26 26 0 0 0-3.44 9 67 67 0 0 1-2.66 10.65 303 303 0 0 0-4.29 14c-1.22 4.4-3.15 9.58-4.27 11.5-1.52 2.6-2.2 6.03-2.64 13.28a68 68 0 0 1-3.54 18.57 111 111 0 0 0-4 16.4 197 197 0 0 1-2.02 11.93c-3.8 17.18-6.8 81.73-5.62 120.82 1.14 37.9 2.55 62.14 4.05 69.41.8 3.9 2.13 13.12 2.94 20.48 1.17 10.56 2.04 14.44 4.1 18.37 2.13 4.09 2.76 7.12 3.5 16.85.66 8.72 1.45 12.96 2.99 15.97 1.15 2.25 2.7 7.33 3.47 11.29a71 71 0 0 0 3.44 12.01 76 76 0 0 1 3.51 11.77c.8 3.83 2.83 9.35 4.5 12.28a42 42 0 0 1 4.05 10.63c.55 2.91 1.65 6.02 2.44 6.89.8.87 1.93 3.78 2.53 6.47s2.2 6.2 3.55 7.8 3.19 5.47 4.08 8.6 4.5 11.32 8 18.2c3.52 6.89 6.39 13.27 6.39 14.18 0 .9 1.07 2.92 2.37 4.47 1.3 1.56 4.52 6.88 7.15 11.83s6.02 10.35 7.53 12c1.5 1.65 4.61 6.58 6.9 10.96s5.95 9.88 8.12 12.23 3.93 4.89 3.93 5.65 1.33 3.13 2.96 5.27 4.21 5.58 5.75 7.65c9.11 12.28 25.44 32.12 35.29 42.87 12 13.1 50.34 50.86 51.67 50.89.45 0 3.53 2.48 6.83 5.5 3.3 3.01 6.32 5.48 6.72 5.48s4.66 3.28 9.5 7.28 9.73 7.95 10.9 8.75c1.17.81 4.56 3.32 7.52 5.58a79 79 0 0 0 9.6 6.26c2.3 1.17 4.65 3 5.21 4.04s3.02 2.87 5.48 4.05a50 50 0 0 1 6.76 3.92 28 28 0 0 0 5.49 3.03c1.75.7 3.43 1.93 3.74 2.73.3.8 2.7 2.4 5.32 3.56 3.9 1.71 16.56 8.7 23.26 12.83.83.51 3.41 1.4 5.75 1.99 2.33.58 5.03 1.88 6 2.9 2.27 2.38 15.34 8.37 21.75 9.96 2.75.68 6.75 2.64 8.9 4.34a21.4 21.4 0 0 0 8.74 3.99c2.67.48 7.22 1.98 10.1 3.33 2.9 1.34 5.93 2.44 6.75 2.45.82 0 4.65 1.56 8.5 3.46a56 56 0 0 0 16.1 4.9c4.99.79 10.9 2.37 13.12 3.5s7.88 2.54 12.58 3.12 10.71 2.03 13.37 3.21c3.88 1.72 8.02 2.33 20.77 3.05q15.92.9 18.82 2.4c8.44 4.36 32.31 6.5 71.75 6.41 37.7-.07 52.14-.55 61.5-2.01 3.85-.6 9.53-1.5 12.62-1.97 3.09-.48 7.07-1.63 8.86-2.55 2.32-1.2 7.25-1.88 17.38-2.4 10.46-.54 15-1.18 17.46-2.48 1.83-.97 7.08-2.41 11.67-3.21s10.33-2.34 12.75-3.41c2.43-1.07 8.88-2.67 14.34-3.54 7.32-1.17 11.5-2.46 15.92-4.9 3.3-1.82 7.8-3.63 10-4.02a24 24 0 0 0 7-2.55c1.65-1 5.67-2.32 8.94-2.91s6.86-1.94 8-2.97c2.74-2.5 7.27-4.7 11.56-5.63 1.92-.41 5.93-2.04 8.9-3.62 2.96-1.58 6.18-2.87 7.16-2.87s3.14-1.14 4.79-2.53a25 25 0 0 1 7.5-3.87 31 31 0 0 0 7.48-3.48c1.64-1.17 3.38-2.12 3.87-2.12s3.98-2.03 7.74-4.5 7.38-4.5 8.02-4.5 2.42-1.31 3.96-2.92 3.96-3.2 5.37-3.56 3.88-1.75 5.47-3.09c1.6-1.33 3.56-2.43 4.37-2.43.8 0 3.13-1.62 5.17-3.6a38 38 0 0 1 7.37-5.48c5.4-2.77 12-7.38 14.75-10.33 1.34-1.42 2.96-2.59 3.6-2.59 1.14 0 17.44-12.48 22.45-17.18a266 266 0 0 1 8.5-7.35c13.46-11.21 43.94-41.27 52.87-52.15 3.7-4.5 7.05-8.32 7.45-8.5 1.09-.48 20.54-22.65 21.6-24.62.51-.94 2.31-3.31 4.02-5.28 4.67-5.4 12.55-16.83 17.59-25.5 1.38-2.37 4.68-7.34 7.34-11.05 2.67-3.7 5.88-9.07 7.14-11.92 1.26-2.86 2.82-5.52 3.46-5.91s2.27-3.05 3.63-5.88 3.1-6.29 3.9-7.66 1.7-3.75 2.01-5.28c.32-1.52 2.15-4.52 4.08-6.65a26 26 0 0 0 4.87-8.73c2.02-7.16 6.53-17.56 8.61-19.84 2.13-2.34 3.96-6.78 3.96-9.63 0-1.9 3.07-8.94 10.6-24.37 1.89-3.85 3.42-8.35 3.42-10-.01-1.65 1.31-5.81 2.94-9.24a61 61 0 0 0 4.08-12.5c.63-3.43 1.77-7.76 2.54-9.61.78-1.85 2.07-7.7 2.87-13.01a72 72 0 0 1 4.96-17.7c2.83-6.5 3.71-10.15 4.53-18.77.56-5.88 1.7-13.05 2.53-15.93.84-2.88 2.22-10.64 3.08-17.24 2.57-19.73 3.26-23.76 5-29 1.44-4.37 1.67-11.54 1.8-57 .14-50.6.09-52.2-2.02-59.5-2.55-8.8-3.99-18.6-5.36-36.5-.55-7.15-1.65-15.17-2.46-17.83-.8-2.66-1.99-9.85-2.63-15.97-.99-9.43-1.74-12.33-4.89-18.84-2.97-6.14-3.86-9.37-4.43-16.02-.4-4.59-1.54-10.22-2.55-12.53a59 59 0 0 1-2.99-9.7c-.63-3.03-2.3-7.2-3.7-9.28q-2.56-3.78-3.39-10.33c-.46-3.69-1.89-8.5-3.27-11.02a44 44 0 0 1-3.14-6.98c-.38-1.37-2.2-5.87-4.04-10s-3.61-9.14-3.94-11.15-1.59-4.91-2.8-6.46c-2.3-2.92-5.58-10-8.93-19.31a36 36 0 0 0-5.42-9.48c-1.9-2.22-3.75-5.18-4.1-6.57-1.09-4.36-7.61-16.45-9.82-18.21-1.16-.93-2.68-3.58-3.37-5.9-.7-2.31-4.15-8.6-7.68-13.97s-6.42-10.22-6.42-10.78-1.24-2.48-2.75-4.26a67 67 0 0 1-8.77-13.73c-.86-1.82-3.25-5.2-5.32-7.5-2.06-2.3-4.29-5.3-4.95-6.68-1.3-2.69-3.12-5.11-16.21-21.54a582 582 0 0 1-10.5-13.46c-2.12-2.96-11.59-13.92-15.06-17.42-15.14-15.3-42.19-39.75-48.31-43.68-2.41-1.54-5-3.69-5.75-4.76-.75-1.08-3.73-3.66-6.62-5.74s-7.16-5.5-9.49-7.6c-2.32-2.09-5.06-3.8-6.07-3.8s-2.86-1.08-4.1-2.4-5.42-4.35-9.28-6.75a103 103 0 0 1-11.29-8.1c-2.34-2.06-4.59-3.75-5-3.75-1.17 0-12.78-7.17-15.53-9.6-1.37-1.2-7.22-4.54-13-7.4s-11.48-6.12-12.69-7.22c-1.2-1.11-4.28-2.4-6.84-2.88s-6-2-7.64-3.39c-1.64-1.38-3.56-2.51-4.26-2.51s-4.21-1.56-7.81-3.47-8.73-3.96-11.4-4.55c-2.67-.6-6.5-2.4-8.52-4a19 19 0 0 0-8-3.57 27 27 0 0 1-7.8-2.62c-1.9-1.08-6.14-2.4-9.41-2.93a38 38 0 0 1-11.98-4.49c-4.28-2.5-8.36-3.92-14.09-4.88a99 99 0 0 1-13.56-3.31c-3.02-1.08-9.1-2.27-13.5-2.65-5.14-.44-9.96-1.57-13.5-3.17-4.61-2.09-8-2.65-21-3.5-8.52-.55-17.3-1.63-19.5-2.41-9.38-3.3-21.87-4.4-55.5-4.84-18.42-.25-38.9-.1-45.5.33m-6 15.98c-5.5.36-11.35 1.27-13 2-1.68.76-10.68 1.9-20.5 2.58-15.48 1.08-18.71 1.63-28 4.74-5.77 1.93-13.37 3.82-16.87 4.2s-8.5 1.52-11.1 2.55-7.95 2.18-11.9 2.57c-5.79.57-7.9 1.27-10.83 3.6-2 1.58-4.57 3.1-5.72 3.35-1.14.26-4.33.95-7.08 1.53-7.4 1.55-23.7 7.82-26.05 10.02-1.13 1.06-4.46 2.37-7.4 2.93a32 32 0 0 0-9.87 4.01c-2.49 1.65-5.02 3-5.62 3s-2.66 1.06-4.58 2.35a43 43 0 0 1-8.67 4.06 34 34 0 0 0-8.88 4.65c-2.04 1.62-4.25 2.94-4.93 2.94s-2.85 1.1-4.84 2.46a30 30 0 0 1-7.62 3.53c-2.2.6-4.48 1.96-5.05 3.03-.58 1.08-2.5 2.69-4.27 3.58-7.27 3.66-18.72 10.75-18.72 11.58 0 .49-2.03 1.76-4.5 2.82-3.89 1.67-8.56 5.07-24 17.5a190 190 0 0 1-8.46 6.21c-3 2.09-7.05 5.42-9 7.42s-5.79 5.32-8.54 7.39c-5.04 3.78-9.67 8.16-32.5 30.75-16.53 16.36-22.74 23.05-27.85 30-2.33 3.18-5.15 6.33-6.25 7-1.1.68-3.31 3.25-4.9 5.73s-4.27 6.3-5.92 8.5-4.74 6.48-6.85 9.5l-8.53 12.2c-2.59 3.67-4.7 7.16-4.7 7.74s-1.48 2.74-3.29 4.8c-4.05 4.64-8.17 11-9.18 14.17-.42 1.3-2.44 4.23-4.5 6.49s-4.32 5.85-5.01 7.99a35 35 0 0 1-3.64 7.39c-1.31 1.92-2.38 4.03-2.38 4.68s-1.55 3.37-3.44 6.03c-1.9 2.66-3.73 6.55-4.08 8.66a23 23 0 0 1-3.2 7.59 73 73 0 0 0-4.48 7.76c-1.06 2.2-2.8 5.58-3.86 7.5s-1.94 4.7-1.94 6.17-1.16 4.06-2.58 5.74c-2.51 2.99-9.1 19.14-11.43 28a26 26 0 0 1-3.98 8c-1.95 2.47-3.04 5.3-3.52 9.09a65 65 0 0 1-2.59 10.94 90 90 0 0 0-2.95 11.5 59 59 0 0 1-4.09 12.42c-2.33 4.9-3.25 8.67-4.02 16.5-.55 5.61-2.1 13.35-3.45 17.32a90 90 0 0 0-3.42 15L276.44 754a92 92 0 0 1-2.44 11c-1.39 4.84-2 11.24-2.42 25a2108 2108 0 0 1-1.75 41c-.93 17.56-.93 27.34.02 44.5.67 12.1 1.65 30.77 2.2 41.5.7 14.16 1.52 21.42 2.98 26.5 1.1 3.85 2.44 11.13 2.98 16.17.53 5.05 1.9 11.57 3.05 14.48s2.72 10.38 3.49 16.57c1.01 8.16 2.33 13.54 4.78 19.52 1.87 4.54 3.7 10.27 4.07 12.72a42 42 0 0 0 2.56 8.68c1.03 2.32 2.18 7.18 2.57 10.8.55 5.1 1.36 7.4 3.6 10.23 1.6 2.01 3.6 6.17 4.44 9.24s2.86 9.05 4.48 13.29 2.95 8.11 2.95 8.61 1.33 2.59 2.95 4.63a19 19 0 0 1 3.6 8.07c.36 2.4 1.5 5.13 2.52 6.05s2.38 3.32 3.02 5.31c.64 2 2.25 5.1 3.59 6.89s3.3 5.76 4.35 8.82 3.05 6.91 4.44 8.57c1.4 1.65 2.53 3.58 2.53 4.28s1.34 3.25 2.98 5.67 3 5.18 3 6.14c.01.96 2.27 4.22 5.02 7.26s5 6.08 5.02 6.76c.02 1.16 3.55 6.99 7.7 12.7a97 97 0 0 1 4.43 7.23c3.19 5.72 12.43 17.91 19.46 25.67 2.82 3.1 5.7 6.77 6.42 8.14 2.73 5.24 42.26 46.16 59.04 61.12 4.09 3.64 10.24 9.15 13.67 12.25s6.58 5.63 7 5.63 2.79 1.86 5.26 4.13c7.43 6.83 24.73 19.67 30.25 22.46 1.79.9 4.38 2.65 5.75 3.9 2.52 2.27 4.95 3.71 12.74 7.52a51 51 0 0 1 8.8 6.03c2.52 2.18 5.4 3.96 6.38 3.96 1 0 3.5 1.35 5.58 3s4.33 3 5 3 2.94 1.36 5.03 3.02 4.97 3.3 6.39 3.64c3.47.83 8.14 3.18 10.58 5.33 1.1.97 3.8 2.34 6 3.05 2.2.7 5.19 2.15 6.64 3.23 1.46 1.07 4.76 2.34 7.34 2.83 2.59.48 6.03 2 7.65 3.36a22 22 0 0 0 7.16 3.58c9.51 2.47 27.36 9.22 29.36 11.1 2.54 2.38 7.96 3.8 14.64 3.84 2.77.01 6.44.86 8.71 2.02 2.16 1.1 7.43 2.52 11.71 3.15a99 99 0 0 1 14.79 3.58c5.2 1.8 11.24 2.77 23.56 3.75 9.93.8 18.06 1.96 20.33 2.9 2.08.88 7.9 2.35 12.94 3.28 7.8 1.43 16.74 1.7 59.67 1.75l50.5.07 12.5-3.32a161 161 0 0 1 27.1-4.63c10.7-.96 15.92-1.9 19.5-3.5 2.7-1.2 8.72-2.86 13.4-3.68 4.66-.83 10.51-2.33 13-3.34 2.47-1.02 7.65-2.13 11.5-2.48 4.34-.4 8.33-1.42 10.5-2.71 4.23-2.52 19.69-8.27 30.1-11.19 4.17-1.17 9.37-3.37 11.55-4.88s5.06-2.75 6.4-2.76 3.8-.73 5.45-1.62c13.19-7.1 23.48-12.16 26-12.78 1.65-.4 4.13-1.76 5.5-3.02a18 18 0 0 1 5.5-3.3 35 35 0 0 0 6.9-3.63c2.13-1.45 4.45-2.64 5.15-2.64s3.67-1.96 6.61-4.36c2.94-2.39 6.32-4.66 7.5-5.03 1.2-.38 3.76-1.9 5.72-3.4 7.38-5.63 8.96-6.76 12.13-8.71 6.64-4.08 11.66-7.66 15.28-10.9 2.04-1.83 4.61-3.62 5.71-3.98s4.14-2.65 6.75-5.1c2.62-2.46 6.04-5.13 7.6-5.94a25 25 0 0 0 5.78-4.78c1.6-1.82 4.75-4.5 7-5.96 13.7-8.97 56.8-54.12 76.08-79.7a812 812 0 0 1 8.02-10.5 70 70 0 0 0 5.21-7.77c1.09-2 2.58-3.86 3.32-4.14s2.77-3.15 4.5-6.37a117 117 0 0 1 7.2-11.36c2.23-3.03 5.4-8.2 7.05-11.5 1.66-3.3 5.46-10.05 8.45-15 3-4.95 5.46-9.55 5.5-10.21.02-.67 1.4-2.77 3.06-4.66a25 25 0 0 0 4.15-6.78 29 29 0 0 1 2.94-5.95c1-1.43 2.23-4.45 2.74-6.7.5-2.27 2.5-6.27 4.44-8.91a25.4 25.4 0 0 0 4.61-10.71c.6-3.25 1.8-6.7 2.66-7.65s2.19-4.07 2.94-6.94a34 34 0 0 1 3.9-8.86c1.6-2.3 2.89-6.04 3.5-10.14.54-3.77 2.2-8.8 3.92-11.99 1.64-3.03 3.3-7.08 3.7-9a64 64 0 0 1 2.98-9c1.28-3.11 2.57-8.97 2.96-13.5.5-5.68 1.53-9.74 3.56-14 1.79-3.73 3.47-9.79 4.46-16 .88-5.5 2.01-11.58 2.53-13.5.51-1.92 1.4-9.12 2-16 .97-11.54 2.07-17.7 6.76-38 1.52-6.58 1.73-13.63 1.73-57.5 0-44.07-.2-50.6-1.67-55a64 64 0 0 1-2.32-11c-.36-3.3-1.3-8.55-2.09-11.66-.78-3.12-1.9-11.44-2.47-18.5s-1.9-16.67-2.95-21.34a158 158 0 0 1-2.53-14.23 34 34 0 0 0-3.17-10.5c-1.86-3.45-2.8-7.2-3.4-13.49-.5-5.26-1.62-10.26-2.82-12.62a47 47 0 0 1-3.14-8.78c-.63-2.68-2.63-8.25-4.43-12.38-1.8-4.12-3.74-10.54-4.3-14.25-.73-4.77-1.79-7.65-3.62-9.83-1.42-1.69-2.59-3.83-2.59-4.76s-1.3-4.38-2.88-7.67c-1.59-3.3-3.19-8.12-3.56-10.71-.46-3.27-1.73-6-4.1-8.83-1.88-2.25-3.93-5.97-4.54-8.26a26 26 0 0 0-3.03-6.85c-1.05-1.47-2.17-4-2.5-5.61-.32-1.62-1.9-4.47-3.5-6.34a22 22 0 0 1-3.94-7.13c-1-3.67-4.54-10.17-9.97-18.36a40 40 0 0 1-3.9-7.67c-.65-1.96-1.87-4.14-2.7-4.84-.85-.7-2.66-3.32-4.03-5.83-5.72-10.44-8.98-15.88-11.17-18.64-1.28-1.6-4.43-6.12-7-10.03a249 249 0 0 0-7.26-10.5c-8.72-11.47-14.62-19.38-15.95-21.4-.85-1.27-4.43-5.5-7.97-9.4s-6.86-7.89-7.39-8.85c-1.15-2.1-33.23-34.03-43.76-43.55-4.14-3.75-9-7.71-10.8-8.8s-4.4-3.33-5.78-4.98a22 22 0 0 0-5.64-4.56c-1.72-.87-4.98-3.47-7.25-5.76-2.26-2.3-8.33-7.04-13.5-10.53-5.16-3.5-9.7-6.9-10.1-7.58s-2.2-1.8-4-2.5c-1.8-.72-4.63-2.5-6.28-3.98-1.65-1.47-6.66-4.78-11.12-7.36-4.47-2.57-9.53-6.02-11.24-7.66s-3.8-2.98-4.65-2.98c-.84 0-4.06-1.35-7.15-3s-6.15-3-6.8-3c-.66 0-2.24-1.12-3.53-2.49s-4.85-3.42-7.92-4.57a78 78 0 0 1-9.59-4.37 49 49 0 0 0-7.63-3.47c-2-.65-4.42-2.05-5.39-3.12-1.06-1.17-3.73-2.21-6.68-2.6-2.71-.36-6.4-1.66-8.22-2.89-3.37-2.29-23.2-9.39-31.96-11.44-2.68-.63-6.4-2.3-8.26-3.72-2.68-2.05-5.11-2.76-11.77-3.43-4.62-.47-10.65-1.74-13.42-2.83a51 51 0 0 0-10.34-2.64 57 57 0 0 1-11.33-3.01c-9.37-3.66-17.84-5.17-33-5.87-10.08-.47-15.82-1.25-20.5-2.76-6.11-1.99-8.86-2.12-46-2.32-21.73-.12-44 .09-49.5.45m20 14.63c-6.6.71-16.27 1.77-21.5 2.36s-13.77 1.07-19 1.1c-7.46.03-10.47.48-14 2.12-7.09 3.27-9.7 3.84-22.8 4.92-9.72.8-13.9 1.64-19.87 4.02a99 99 0 0 1-12.7 4.09c-2.82.6-6.93 2-9.13 3.12-2.38 1.21-7.16 2.32-11.8 2.74-6.5.58-8.24 1.12-10.53 3.32a14.6 14.6 0 0 1-6.2 3.29 32 32 0 0 0-7.01 2.43c-1.95.97-6.1 2.44-9.23 3.25s-7.9 3.12-10.6 5.1c-2.8 2.06-6.86 3.97-9.42 4.45-2.47.46-6 1.76-7.85 2.88a33 33 0 0 1-5.85 2.79c-1.36.41-4.1 2.06-6.08 3.64a39 39 0 0 1-8.88 4.9 41 41 0 0 0-8.52 4.47c-1.77 1.35-3.66 2.46-4.2 2.46s-2.03 1.12-3.32 2.49a12 12 0 0 1-5.68 3.1 16 16 0 0 0-6.03 2.77c-3.03 2.43-7.94 5.52-13.8 8.71a60 60 0 0 0-8.67 6.3c-6.39 5.64-9.78 8.03-13.44 9.5a14.6 14.6 0 0 0-5.27 4.18 20 20 0 0 1-5.9 4.86c-2.04 1.05-5.52 3.8-7.72 6.11-2.2 2.3-5.8 5.34-8 6.75-4.58 2.94-13.97 11.01-22.93 19.73-3.39 3.3-7.42 6.84-8.95 7.86a19 19 0 0 0-4.67 5 70 70 0 0 1-6.42 8.14c-8.47 9.38-13.28 15.28-17.05 20.97-2.07 3.12-4.77 6.33-5.99 7.13s-4.29 4.27-6.82 7.72-5.79 7.37-7.23 8.72c-2.4 2.24-4.55 5.7-9.78 15.77a20 20 0 0 1-4.2 5.4 10 10 0 0 0-3.04 4.07c-.91 2.87-10.36 16.98-12.06 18-.71.43-1.76 2.5-2.33 4.6a19 19 0 0 1-3.12 6.21 40 40 0 0 0-4.02 5.91 147 147 0 0 1-2.84 5c-.51.83-2.1 4.2-3.55 7.5s-3.47 6.9-4.51 8.01-2.64 3.81-3.54 6c-.9 2.2-2.33 4.76-3.17 5.7s-1.9 3.77-2.38 6.28a22 22 0 0 1-3.85 8.3c-1.66 2.06-4.12 6.89-5.46 10.73-3.8 10.78-7.68 19.75-9.65 22.27-1.07 1.37-2.06 4.97-2.48 9-.38 3.69-1.5 8.06-2.5 9.71-3.18 5.28-10.92 29.65-11.9 37.47-1.08 8.62-1.64 10.46-4.38 14.22-1.45 1.98-2.19 5.32-2.81 12.7-.47 5.5-1.72 13.3-2.78 17.31s-2.44 13.04-3.06 20.07c-.62 7.02-1.78 14.61-2.58 16.87-3.2 9.05-4.87 35.6-4.88 77.36-.02 41.52 1.07 56.27 5.05 68.7.82 2.57 2.12 10.67 2.87 18 .76 7.31 2.13 15.77 3.05 18.8.93 3.01 2 10.33 2.4 16.25.58 8.9 1.1 11.3 2.95 13.82 1.27 1.71 2.66 5.63 3.18 8.99l1.85 11.82c.5 3.24 2.08 8.43 3.5 11.54a64 64 0 0 1 3.6 10.19c.56 2.49 1.93 5.76 3.05 7.27 1.2 1.62 2.43 5.59 3 9.67.63 4.38 1.87 8.22 3.38 10.44a30 30 0 0 1 3.46 7.51c.59 2.2 2.2 6.21 3.58 8.92s2.51 5.54 2.51 6.29c0 2.12 3.55 8.58 5.87 10.68 1.15 1.03 2.37 3.51 2.72 5.5a23 23 0 0 0 2.92 7.11 24 24 0 0 1 2.97 6.74c.37 1.78 1.77 4.1 3.12 5.16 1.34 1.05 3.74 5.07 5.33 8.93a70 70 0 0 0 6.82 12.34c4.9 6.64 6.25 9.17 6.25 11.64 0 1.07.74 2.56 1.64 3.3.9.75 2.68 2.94 3.96 4.88 5.24 7.9 8.77 12.7 11.82 16.01a33 33 0 0 1 4.43 6 66 66 0 0 0 10.15 15c12.23 13.46 17 19.01 17 19.8 0 1.57 47.46 48.73 53.6 53.26 3.24 2.4 8.15 6.46 10.9 9.03 11.04 10.29 17.47 15.55 22.5 18.41a59 59 0 0 1 8.4 5.78c1.7 1.53 6.93 5.3 11.6 8.4 4.67 3.08 9.53 6.4 10.78 7.38s4.03 2.07 6.16 2.43 4.7 1.58 5.72 2.7c2.9 3.23 11.42 8.34 16.96 10.18 2.78.93 6.32 3 7.86 4.61 1.55 1.61 4.84 3.62 7.33 4.47s5.3 2.24 6.23 3.09 3.46 1.8 5.59 2.13a14.6 14.6 0 0 1 6.87 3.37c1.65 1.53 5.25 3.45 8 4.27 5.42 1.62 16.05 6.22 24 10.38 3.5 1.83 7.35 2.83 12.78 3.32 5.89.53 8.33 1.21 10.02 2.8 1.24 1.17 5.3 2.82 9.02 3.68s9.11 2.52 11.97 3.67 10.68 2.9 17.36 3.9c8 1.2 13.8 2.65 17 4.27 4.26 2.16 7.1 2.6 23.35 3.65 10.76.7 20.8 1.89 24 2.85 8.2 2.45 73 2.45 84 0 4.13-.92 17.14-2.2 28.96-2.84 18.68-1.02 22.31-1.49 28-3.64 3.6-1.37 11.49-3.13 17.54-3.92 6.05-.8 15.5-2.76 21-4.36s11.8-3.21 14-3.57 5.74-1.83 7.86-3.28c2.69-1.84 5.75-2.84 10.14-3.29 3.85-.4 7.4-1.44 9.15-2.68 1.57-1.11 5.13-2.7 7.91-3.53s7.83-2.9 11.22-4.61 7.33-3.11 8.76-3.11c2.96 0 5.8-1.33 9.62-4.5a16 16 0 0 1 6.62-2.85c2.18-.35 4.52-1.31 5.21-2.14s3.46-2.16 6.17-2.97c2.71-.8 6.77-3.04 9.03-4.97s5.72-4.03 7.7-4.67c3.95-1.26 10.16-4.87 15.76-9.14a25 25 0 0 1 6.8-3.62c2.99-.82 8.3-4.36 16.56-11.02 1.93-1.56 4.6-3.18 5.93-3.6s5.26-3.19 8.75-6.14c3.48-2.96 6.8-5.38 7.37-5.38.56 0 3.14-1.96 5.73-4.35s5.46-4.75 6.39-5.25 4.3-3.2 7.5-6.03c3.2-2.82 10.32-9.05 15.82-13.85s15.87-14.76 23.04-22.13 13.55-13.39 14.18-13.39 1.43-.9 1.78-2c.35-1.09 3.41-5.08 6.82-8.85 9.3-10.34 14.53-16.72 18.39-22.46 1.92-2.86 5.87-7.9 8.78-11.22s6.46-8.44 7.88-11.39 3.5-6 4.6-6.78c1.12-.78 2.03-2.03 2.03-2.78s1.06-2.64 2.36-4.2a19 19 0 0 0 3.07-5.06c.38-1.24 2.5-4.51 4.68-7.29a60 60 0 0 0 5.98-9.25c4.19-8.86 6.94-13.75 8.76-15.57 1.03-1.03 2.18-3.5 2.55-5.47.61-3.26 5.75-12.73 10.84-19.97 1.08-1.54 2.6-5.58 3.4-8.98s2.27-7.1 3.28-8.21c2.46-2.72 4.08-5.99 4.08-8.26 0-1.03 1.06-3.31 2.36-5.08 1.49-2 2.61-5.3 3.03-8.84.5-4.23 1.55-6.85 4.18-10.43 2.53-3.45 3.93-6.84 5-12.1a81 81 0 0 1 3.34-11.81 48 48 0 0 0 2.56-9.44c.39-2.71 2.02-7.39 3.62-10.39 2.05-3.85 2.91-6.87 2.91-10.26 0-2.64 1.08-8.32 2.4-12.6 1.32-4.3 3.36-12.53 4.53-18.31a196 196 0 0 1 4.24-17c1.77-5.46 2.25-10.42 2.98-31 .85-23.92 1.85-36.34 3.89-48.5 1.2-7.1.36-28.43-1.57-40.5-.75-4.67-1.63-19.9-1.96-33.83-.54-22.98-1.44-33.63-3.08-36.28-.32-.52-2.13-7.8-4.02-16.17s-4.13-17.33-4.98-19.92c-.86-2.58-1.91-8.23-2.35-12.55-.6-5.93-1.44-8.83-3.44-11.85-1.8-2.72-2.94-6.24-3.55-10.95-.5-3.82-1.8-8.98-2.89-11.45a44 44 0 0 1-2.69-9.5c-.8-5.65-1.62-7.5-5.6-12.57-1.9-2.43-3.01-5.3-3.48-9-.37-2.99-1.54-6.85-2.58-8.6a43 43 0 0 1-3.38-8.12c-.81-2.74-2.15-5.53-2.98-6.22s-2.24-3.78-3.13-6.87c-1.82-6.33-8.42-20.08-11.82-24.62a20 20 0 0 1-2.94-6.8c-.4-2.1-1.58-4.56-2.64-5.47-1.06-.9-4.3-6.34-7.2-12.07s-6.56-11.83-8.15-13.54a19 19 0 0 1-3.87-6.61 20 20 0 0 0-3.35-6.33c-1.32-1.56-2.39-3.44-2.39-4.19 0-.74-1.5-2.95-3.35-4.9a53 53 0 0 1-6.45-9.32 65 65 0 0 0-6.58-9.77c-7.37-8.5-9.4-11.1-10.88-14.01-4.09-7.99-39.96-46.68-65.24-70.37-9.26-8.68-20.94-18.42-25.62-21.35-1.45-.9-5.27-3.97-8.5-6.8-3.24-2.84-7.23-5.84-8.88-6.68a33 33 0 0 1-6-4.24c-1.65-1.5-7.57-5.51-13.15-8.92-5.59-3.4-10.66-6.8-11.29-7.56s-2.64-1.64-4.5-2c-1.85-.34-3.94-1.32-4.64-2.17s-3.12-2.47-5.35-3.59a36 36 0 0 1-5.57-3.35c-.83-.72-4.17-2.3-7.43-3.52-3.27-1.22-7.1-3.45-8.5-4.94a17.5 17.5 0 0 0-6-3.87c-1.9-.64-4.18-1.82-5.08-2.64s-3.8-1.89-6.43-2.38c-2.64-.5-5.98-1.84-7.43-3-4.44-3.54-7.14-4.74-21.37-9.47-7.56-2.51-15.03-5.52-16.6-6.69-1.93-1.42-4.98-2.3-9.27-2.66-3.73-.31-7.75-1.36-9.67-2.51-1.8-1.09-7.2-3-12-4.24s-11.2-3.18-14.22-4.3c-3.12-1.15-10.63-2.52-17.34-3.16-9.22-.88-12.96-1.7-16.94-3.72-4.46-2.26-7-2.7-19.77-3.46-16.67-.98-33.2-2.46-43.45-3.87-9.4-1.3-27.35-1.08-42 .52m263.26 6.03c-1.02 1.01.34 3.42 1.92 3.42.83 0 1.33-.72 1.14-1.67-.34-1.79-2.05-2.76-3.06-1.75m-264.5 30.67c-.54.69-1.24 3.8-1.54 6.9-.37 3.73-1.45 7-3.2 9.64-1.64 2.49-2.97 6.32-3.51 10.18-.49 3.4-1.57 7.24-2.42 8.53-1.96 3-9.48 20.04-10.58 24a75 75 0 0 0-1.5 7.87q-.67 4.86-3.03 7.06c-1.3 1.2-2.9 4.4-3.58 7.13a45 45 0 0 1-3.06 8.43c-1.01 1.91-1.84 4.03-1.84 4.71s-3.37 4.96-7.49 9.52c-8.13 9-9.23 12.04-5.01 13.96 1.84.84 3.87.85 7.75.04 2.89-.6 9.62-1.39 14.95-1.75 11.83-.8 12.68-1.47 10.45-8.29-1.46-4.48-1.44-5.25.23-10.75 4.05-13.36 6.54-15.04 23.34-15.75 9.72-.42 11.12-.25 15 1.8 8.66 4.6 11.5 15.35 5.78 21.87-3.33 3.8-3.8 6.71-1.43 9.08 1.24 1.23 3.89 1.57 12.4 1.57 5.94 0 14.5.7 19 1.56 16.67 3.16 20.22.34 11.27-8.94-6.04-6.26-10.78-16.1-11.54-23.94-.42-4.32-1.3-6.73-3.38-9.36a238 238 0 0 1-4.04-5.2c-.67-.92-1.69-4.96-2.26-8.98s-1.9-9.4-2.94-11.97a58 58 0 0 1-2.56-7.67 23 23 0 0 0-3.09-6.56c-1.63-2.38-2.73-5.86-3.31-10.53-.6-4.76-2.07-9.36-4.61-14.45-5.76-11.51-4.75-10.96-20.04-10.96-9.39 0-13.51.36-14.21 1.25m144.57 18.76a761 761 0 0 1-8.13 10.15c-4.3 5.3-5.73 7.81-5.5 9.73.4 3.48 3.15 3.83 6.7.85 1.57-1.32 5.56-3.42 8.87-4.65 5.56-2.08 6.24-2.14 8.97-.73 1.62.84 5.38 1.83 8.35 2.2 6.03.76 14.79 5.8 17.63 10.14 1.61 2.46 1.59 2.63-.63 4.43-1.27 1.03-2.82 1.88-3.45 1.88-.63.01-3.76 2.49-6.96 5.5-3.2 3.02-6.25 5.49-6.77 5.49-.53 0-3.03 1.91-5.56 4.25a63 63 0 0 1-7.93 6.25c-4.05 2.45-21.38 16.43-27.09 21.85-2.3 2.18-5.58 4.56-7.32 5.29-1.73.72-5.48 3.3-8.33 5.72s-6.75 4.73-8.68 5.12c-5.1 1.04-8 3.2-8 5.94 0 2.95 1.6 3.58 9.15 3.58 4.49 0 7.04.6 10.17 2.4a30 30 0 0 0 9.08 3.08c2.7.38 6.52 1.76 8.5 3.07 2.2 1.45 6.22 2.76 10.28 3.33 3.8.54 8.53 2.02 11 3.45A43 43 0 0 0 939 472c2.48.64 6.46 2.3 8.86 3.69a26 26 0 0 0 10.04 3.03l5.68.52 5.08-5.56c6.79-7.42 10.09-13.3 10.9-19.38 1.04-7.87-.4-7.66-10.15 1.45-1.91 1.79-3.9 3.25-4.4 3.25-.52 0-2.56 1.43-4.55 3.17-4.26 3.74-8.45 4.12-11.72 1.06-2.6-2.43-6.9-4.23-10.11-4.23-1.23 0-3.7-1.07-5.46-2.38a19 19 0 0 0-7.07-2.99c-2.11-.34-4.37-1.25-5.01-2.02-1.9-2.3-.15-6.54 3.78-9.14 2-1.32 5.43-3.75 7.63-5.4s5.13-3.78 6.5-4.72c3.4-2.34 14-11.25 16.7-14.06 1.21-1.26 2.6-2.29 3.08-2.29.49 0 2.87-1.83 5.3-4.06a78 78 0 0 1 8.08-6.46 53 53 0 0 0 7.32-6.16 48 48 0 0 1 5.98-5.3c5.24-3.44 15.54-13.95 15.54-15.85 0-2.36-11.35-9.17-15.27-9.17-1.35 0-4.17-1.36-6.26-3.02-2.09-1.67-4.97-3.3-6.39-3.64a31 31 0 0 1-5.58-2.14c-1.65-.84-6.1-2.32-9.87-3.3-4.31-1.1-8.36-2.96-10.85-4.96-4.18-3.35-8.8-4.88-14.95-4.92-2.92-.01-4.16.6-6 2.99m-132.89 13.64c-6.03 8.14-7.1 10.22-9.1 17.62-3.4 12.56-3.4 12.57-.39 13.71 4.41 1.68 17.73 1.28 20.43-.61 2-1.4 2.25-2.19 1.7-5.6a33 33 0 0 0-2.67-7.95c-1.2-2.35-2.28-6.94-2.61-11.16-.56-7.05-1.63-10.66-3.14-10.66-.43 0-2.32 2.1-4.22 4.65m-171 2.05c-2.32 1.95-4.83 2.89-9.08 3.4-3.24.37-7.12 1.52-8.62 2.54a27 27 0 0 1-6.24 2.89c-2.8.82-3.57 1.6-3.83 3.88-.26 2.3.64 3.86 4.65 7.98 2.73 2.81 5.98 7.13 7.21 9.61a45 45 0 0 0 4.5 7.2c1.37 1.64 2.56 4.81 2.99 8a31 31 0 0 0 2.98 9.3 29 29 0 0 1 2.85 7.23c.32 1.77 1.71 4.92 3.08 7 1.37 2.07 3.01 6.25 3.65 9.27.63 3.02 2.67 8.24 4.54 11.6 4.41 7.95 4.6 14.2.66 21.28-2.33 4.17-2.53 5.11-1.38 6.5 1.93 2.32 4.15 2.02 9.18-1.27 2.43-1.6 6.38-3.22 8.78-3.61 4.34-.7 7.84-2.08 24.14-9.45 4.67-2.12 11.15-4.33 14.4-4.93s6.65-1.76 7.58-2.6 3.79-2.24 6.36-3.12c2.56-.87 5.62-2.78 6.78-4.25 1.95-2.44 2.08-3.5 1.56-13.48-.56-10.96-1.88-15.04-5.3-16.36-2.2-.84-3.3.7-4.9 6.8-1.51 5.79-5.07 9.75-13.6 15.16a102 102 0 0 0-6.98 4.84c-1.7 1.34-4.7 2.24-8.66 2.6-7.13.65-10.4-1.1-15.03-8.03-3.25-4.88-8.21-16.8-8.21-19.77 0-2.47-1.5-5.45-4.65-9.24-1.3-1.55-2.35-3.66-2.35-4.67 0-1.02-1.36-5.37-3.03-9.67L630.81 389c-1.17-3.02-2.96-6.7-3.97-8.15-2.79-4.03-2.36-8.25 1.21-11.9 2.43-2.49 2.81-3.4 1.88-4.54q-2.65-3.2-7.98 1.29m-245.56 29.28c-1.21.49-2.32 2.06-2.62 3.69-.68 3.82.54 26.98 1.48 27.91 1.44 1.44 5.87-1.62 7.3-5.05.8-1.9 1.45-5.62 1.45-8.26 0-2.93.8-6.3 2.05-8.63 1.92-3.57 1.95-4 .45-6.28a10 10 0 0 0-4.12-3.4c-2.92-1.11-3.19-1.11-5.99.02m908.33.03a15 15 0 0 0-5 2.9 78 78 0 0 1-6.28 4.95c-5.35 3.8-13 12.83-15.02 17.73a25 25 0 0 1-3.55 6c-1.11 1.22-2.4 4.83-3.02 8.5-.6 3.53-1.66 9.44-2.37 13.14-1.17 6.15-1.1 7.61.96 16.71 2.29 10.15 3.68 13.06 6.23 13.06 2.94 0 4.4-6.55 4.2-18.8-.16-10.3.08-12.18 1.98-15.69 1.18-2.19 2.15-4.89 2.16-6 .01-3.03 4.35-11.74 8.81-17.7 6.16-8.24 12.19-13.52 16.83-14.74 4.26-1.12 5.35-2.47 5.35-6.62 0-3.94-4.77-5.4-11.28-3.44M315.2 396.2c-1.57 1.57-1.54 6.27.06 7.6.69.57 2.6 1.35 4.25 1.74 7.98 1.87 19.12 13.31 22.66 23.3 3.79 10.68 4.79 17.35 4.82 32.16.04 15.54.44 18.57 2.56 19.38 3.08 1.19 5.41-2.77 7.58-12.88 3.2-14.93 3.31-19.24.87-32.53-2-10.84-2.54-12.3-5.9-16.2a73 73 0 0 1-6-8.05 18 18 0 0 0-5.95-5.67c-2-1.04-5.66-3.73-8.11-5.97-4.1-3.75-4.9-4.08-10.05-4.08-3.07 0-6.13.54-6.79 1.2m910.13 1.38c-2.18 2.18-2.5 3.23-2.09 6.87.44 3.9 1.68 6.16 8.6 15.62.74 1.01 1.59 4.56 1.89 7.88s.87 6.05 1.26 6.05c.82 0 2-15.96 2-27.25 0-6.42-.33-8.1-1.99-9.75-2.74-2.74-6.58-2.5-9.67.58m-40.94-.16c-.84 2.19 1.38 5.48 4.16 6.18a7.7 7.7 0 0 1 3.85 2.56c.74 1.06 5.67 6.4 10.94 11.88 7.19 7.46 10.24 9.96 12.13 9.96 2.26 0 2.53-.4 2.53-3.75 0-2.09-1.33-6.56-3-10.09-1.65-3.49-3-7.13-3-8.1s-.5-3.18-1.1-4.91c-1.24-3.57-2.72-3.85-10.72-2-4.49 1.03-5.3.94-8.44-1-4.03-2.5-6.58-2.74-7.35-.73m-767.73 1.76c-2.38 1.78-4.11 2.1-10.68 1.97-5.64-.1-8.24.26-9.27 1.29-.83.82-1.73 4.55-2.11 8.75-.38 4.02-1.42 9.44-2.33 12.04-.9 2.6-1.4 4.97-1.1 5.27.88.88 13.76-7.85 14.39-9.76.32-.96 4.26-4.98 8.76-8.92 9.13-8 9.64-8.6 9.67-11.07.02-2.44-3.79-2.21-7.33.43m646.84 24c-9.9 8.34-12.5 10.82-12.5 11.88 0 1.85 3.29 2.3 8.66 1.17 7.77-1.63 14.13.48 21.9 7.3 7.35 6.44 9.17 10.75 6.43 15.25-2.13 3.5-7.17 6.74-11.99 7.7-5.7 1.15-29.61 9.36-33.2 11.41-1.81 1.05-5.84 2.2-8.93 2.56-3.56.42-6.83 1.55-8.88 3.06a20 20 0 0 1-6.36 3.05c-1.72.37-5.7 1.74-8.85 3.06-3.15 1.3-6.84 2.38-8.21 2.38-5 0-6.24 7.08-1.66 9.45 1.6.83 9.14 7.64 16.75 15.13s15.64 14.8 17.85 16.27c4.74 3.14 8.62 6.46 17.4 14.9 7.35 7.05 10.26 7.83 14.09 3.75 1.3-1.37 2.98-2.5 3.76-2.5s4.07-2.7 7.33-6c9.54-9.7 8-12.2-8-13.07-11.87-.65-15.72-2.07-18.83-7a19 19 0 0 0-5.86-5.3c-4.57-2.57-6.6-6.86-4.33-9.13.82-.81 3.62-1.88 6.24-2.37s5.61-1.65 6.65-2.6c1.1-.99 4.67-2.05 8.51-2.53 5.13-.63 7.79-1.62 11.82-4.4a50 50 0 0 1 10.21-5.25c2.75-.92 5.9-2.25 7-2.96 1.1-.7 4.25-1.78 7-2.4 2.75-.6 6.13-2.17 7.5-3.48 1.44-1.37 5.04-2.95 8.5-3.75 6.49-1.49 20.25-8.94 21.23-11.5.7-1.83-6.14-8.31-14.83-14.05-2.9-1.92-10.3-8.16-18.75-15.83-3.1-2.82-6.78-5.46-8.15-5.87a16 16 0 0 1-5-2.96c-4.26-3.78-15.14-10.55-16.86-10.49-.9.04-4.34 2.34-7.64 5.12m-568 21.76c-3.25 1.33-19.29 15.82-20 18.08-.42 1.3.02 3.04 1.17 4.66 3.33 4.7 4.3 6.8 4.31 9.34.01 1.38 1.08 4.08 2.38 6 1.3 1.91 2.7 4.6 3.13 5.98a93 93 0 0 0 3.97 9 65 65 0 0 1 4.45 12.26c.68 3.17 2.31 7.04 3.63 8.6 1.3 1.56 2.88 5.03 3.47 7.7.6 2.69 1.93 6.24 2.96 7.9a24 24 0 0 1 2.55 7.04c.38 2.2 2.27 6.7 4.2 10 2.77 4.71 3.73 7.72 4.47 14 .96 8.12 2.67 11.15 5.63 10.01 1.9-.72 6.85-4.48 10.07-7.63 1.47-1.45 5.25-4.27 8.4-6.28 7.06-4.53 7.58-7.05 1.63-8-7.01-1.12-13.34-4.97-15.26-9.27-.94-2.1-2.4-5.08-3.25-6.62-2.27-4.08-1.04-7.74 3.87-11.5 8.34-6.38 13.4-9.94 17.93-12.6 2.53-1.48 4.86-3.35 5.17-4.15 1-2.63 6.37-1.65 12.2 2.23 5.55 3.68 8.42 7.48 8.42 11.14a4.6 4.6 0 0 0 1.44 3.12c1.93 1.6 4.04.4 12.2-7.01 3.61-3.27 7.17-5.94 7.92-5.94s3.08-1.69 5.19-3.75c2.1-2.06 5.07-4.78 6.6-6.05 1.78-1.48 2.66-3.06 2.46-4.44-.26-1.77-2.22-2.76-11.31-5.74-11.53-3.78-20.27-7.83-22.37-10.36-.68-.83-3-1.8-5.16-2.17-2.15-.36-4.98-1.5-6.3-2.53-1.3-1.03-7.5-4.45-13.77-7.6s-12.88-7-14.68-8.54c-1.81-1.55-4.34-2.82-5.62-2.82s-3.41-.85-4.73-1.89a21 21 0 0 0-6.2-2.93c-2.08-.58-5.58-2.68-7.78-4.66-5.66-5.11-9.15-6.3-13.39-4.58m6.6 31.31c-.96 2.57-.75 3.38 2.52 10.2 1.31 2.72 2.38 5.64 2.39 6.5 0 .85.92 2.9 2.04 4.55a47 47 0 0 1 3.53 6.46c3.05 7.06 7.31 9.03 10.92 5.04 1-1.1 2.17-2 2.61-2 .72 0 11.89-7.98 11.89-8.5 0-.1-.5-1.61-1.1-3.33-1.05-3.05-8.07-9.17-10.51-9.17-.67 0-2.48-1.34-4.02-2.97s-4.1-3.25-5.7-3.6c-1.58-.35-4.47-1.72-6.42-3.03-4.42-3-7.07-3.05-8.15-.15m271.9 1.34c-3.58.8-13.02 1.88-21 2.42-15.7 1.06-17.95 1.47-22.5 4.07-1.65.95-5.43 2.23-8.4 2.85-2.98.61-8.6 2.2-12.5 3.51-3.9 1.32-9.28 2.95-11.94 3.63a27 27 0 0 0-8.85 4.59c-2.36 1.97-5.1 3.34-6.7 3.34-1.48 0-4.47.94-6.65 2.08a61 61 0 0 1-8.6 3.5c-2.56.8-4.91 2.11-5.23 2.94s-3.85 3.09-7.85 5.02c-8.57 4.14-15.86 8.34-18.44 10.6a14 14 0 0 1-4.34 2.35 16 16 0 0 0-5 2.95c-3.47 3.08-11.59 8.69-17.25 11.93-2.61 1.5-4.75 3.14-4.75 3.66s-1.8 2.09-4.01 3.48c-4.2 2.64-12.57 10.13-21.82 19.49-3 3.02-6.56 6.25-7.93 7.16-1.38.9-4.13 3.7-6.12 6.2a810 810 0 0 1-8.85 10.85c-9.32 11.22-22.2 28.4-25.97 34.64a67 67 0 0 1-3.79 5.65c-2.9 3.67-6.54 9.62-9.68 15.84a76 76 0 0 1-5.4 9.16 20 20 0 0 0-3 6 25 25 0 0 1-3.08 6.48c-1.3 1.92-2.35 4.42-2.35 5.55 0 1.14-1.37 3.94-3.05 6.22s-3.96 7.43-5.07 11.45-2.85 8.65-3.86 10.3A34 34 0 0 0 487 713a42 42 0 0 1-3.51 8.54c-1.57 2.71-2.56 6.5-3.03 11.5-.38 4.1-1.58 9.49-2.65 11.96-1.83 4.2-6.16 23.9-9.39 42.66-3.96 23.06-3.67 106.22.46 130.84 2.37 14.13 6.5 31.47 8.57 35.95 1.3 2.83 2.6 8.13 2.98 12.05.45 4.91 1.37 8.1 3.06 10.67a27 27 0 0 1 3.12 6.5c.39 1.56 1.95 5.6 3.46 9a94 94 0 0 1 4.38 12.5c.96 3.75 2.56 7.2 3.94 8.49 1.27 1.19 2.82 4.16 3.44 6.6.61 2.46 1.8 5.03 2.63 5.72s2 3.04 2.58 5.22c.6 2.18 2.57 6.07 4.4 8.63a113 113 0 0 1 6.18 10.02c8.25 15.4 20.34 33.43 27.02 40.3 1.95 2 4.55 5.3 5.78 7.34 3.2 5.3 26.67 29.84 35.87 37.51 4.3 3.58 9.47 8 11.5 9.85 5.1 4.6 17.91 14.35 21.09 16.03 1.44.76 3.64 2.31 4.9 3.46 2.16 1.96 6.62 4.73 15.71 9.73 2.2 1.2 5.65 3.5 7.68 5.09 2.02 1.6 5.17 3.4 7 4 1.83.62 4.02 1.72 4.87 2.45s3.34 1.97 5.52 2.74 5.7 2.57 7.8 4 5.47 2.88 7.48 3.23c2 .34 6.57 2.1 10.15 3.92 3.58 1.8 8.52 3.82 11 4.48 2.48.65 6.08 2.1 8 3.23 2.43 1.43 6.1 2.25 12 2.67 6.56.48 9.23 1.14 11.68 2.89 2.17 1.55 5.64 2.57 11 3.23 4.3.54 12.1 1.85 17.32 2.93 11.96 2.46 51.29 4.42 61.5 3.06 3.85-.5 9.41-.94 12.36-.96 2.95-.01 9.03-.9 13.5-1.97s12.33-2.4 17.45-2.96c6.43-.7 10.4-1.68 12.8-3.17 2.33-1.44 6.27-2.46 11.7-3.04 8.46-.9 11.9-2.1 27.19-9.43 4.95-2.37 11.59-4.83 14.75-5.46 3.81-.76 6.1-1.78 6.77-3.04.56-1.04 2.74-2.36 4.84-2.92s4.62-1.9 5.59-2.98a10.7 10.7 0 0 1 4.9-2.61 14 14 0 0 0 5.15-2.38c2.97-2.56 11.7-8.07 12.78-8.07.51 0 2.27-1.12 3.9-2.5 1.64-1.37 3.6-2.5 4.36-2.5s2.87-1.28 4.68-2.83c1.8-1.56 5.98-4.66 9.28-6.88 3.3-2.23 6.9-5.05 8-6.27a21 21 0 0 1 5-3.78c4.43-2.28 12.26-9.35 28.5-25.73 17.53-17.68 24.14-24.73 28.33-30.2l7.26-9.48a83 83 0 0 0 5.2-7.42 34 34 0 0 1 4.12-5.3c1.65-1.78 4.34-6.06 5.98-9.53a58 58 0 0 1 6.95-10.9c2.2-2.53 4.3-6.04 4.69-7.8a38 38 0 0 1 3.09-7.7c1.3-2.46 2.38-5.05 2.38-5.75s1.06-2.55 2.36-4.1a31.5 31.5 0 0 0 6.65-13.88c.59-2.61 2.16-6.05 3.49-7.63a16 16 0 0 0 3-6.6 33 33 0 0 1 2.91-8.22 35 35 0 0 0 3.02-9.89c.37-2.97 2.27-8.74 4.21-12.84a57 57 0 0 0 4.91-16.62c.76-5.04 2.23-11.87 3.28-15.16s2.22-9.81 2.62-14.48c.5-5.77 1.58-10.42 3.39-14.5l2.66-6.01v-48.17c0-47.56-.03-48.2-2.13-51.04-2.35-3.18-2.94-6.07-4.28-20.79-.54-5.87-1.98-13.17-3.5-17.68-1.42-4.22-2.59-9.63-2.59-12.02 0-3.1-1.14-6.59-3.97-12.12-2.35-4.59-4.23-9.9-4.6-12.97a35 35 0 0 0-2.9-9.71 37 37 0 0 1-2.97-8.65 21 21 0 0 0-3.12-7.43 20 20 0 0 1-3.06-6.85c-.68-3.74-3.44-9.83-6.37-14.07a28 28 0 0 1-2.9-6.13c-.66-2-2.07-4.43-3.15-5.4a6.5 6.5 0 0 1-1.96-4.2c0-3.01-1.58-6-4.97-9.4-1.45-1.44-4.06-5.52-5.8-9.05a86 86 0 0 0-6.44-10.86 95 95 0 0 1-4.79-7.06c-3.33-5.82-7.16-11.03-8.5-11.54-.78-.3-2.83-3.06-4.57-6.14-4.13-7.32-11.32-15.52-29.12-33.22-17.22-17.13-22.92-22.29-29.83-27-6.82-4.65-17.06-12.98-19.2-15.62-.94-1.16-3.17-2.4-4.93-2.76a13 13 0 0 1-5.11-2.36c-1.9-1.72-7.06-4.55-18.24-10.02-3.3-1.62-7.35-4.07-9-5.46a18 18 0 0 0-6.5-3.27 32 32 0 0 1-7.59-3.13c-2.25-1.31-5.47-2.38-7.17-2.38-1.77 0-4.3-1-5.91-2.35-4.2-3.49-6.08-4.27-14.38-5.97-4.16-.86-10-2.52-13-3.7-3-1.2-8.15-2.6-11.45-3.12a42 42 0 0 1-10.57-3.32c-3.87-2-7.04-2.54-20.5-3.47-8.76-.6-18.85-1.75-22.43-2.55-8.91-1.99-45.9-1.94-55 .07m3 14.1c-19.65 1.15-26.3 2.29-31.92 5.47-4.82 2.74-6.87 3.24-15.08 3.75-7.19.45-10.35 1.1-13 2.72a26 26 0 0 1-7.47 2.83 30 30 0 0 0-8 3.05c-2.22 1.28-6.71 2.82-9.99 3.42-4.05.73-7.85 2.35-11.9 5.07-3.27 2.2-6.7 4-7.6 4s-3.14 1.1-4.97 2.45a20 20 0 0 1-6.44 3.1 14.4 14.4 0 0 0-5.63 2.92c-1.37 1.24-4.76 3.46-7.53 4.93s-7.79 5.14-11.16 8.14-6.8 5.46-7.63 5.46-4.13 2.16-7.34 4.8a120 120 0 0 1-8.53 6.48c-1.48.93-6.28 4.96-10.67 8.96s-8.57 7.75-9.3 8.36a79 79 0 0 0-4.91 5 111 111 0 0 1-7 6.92 39 39 0 0 0-4.93 5.15c-1.78 2.52-21.18 25.94-23.89 28.83-1.03 1.1-2.42 3.72-3.1 5.82-.66 2.1-1.87 4.07-2.67 4.38-1.54.6-9.83 12.42-12.83 18.3-.98 1.92-2.38 3.85-3.12 4.28-.73.43-1.81 2.58-2.4 4.77-.6 2.2-2.18 5.62-3.53 7.61-1.36 2-2.46 4.29-2.46 5.1 0 .82-1.75 4.1-3.89 7.3-2.13 3.21-4.43 8.22-5.1 11.14-.68 2.91-2.28 6.88-3.57 8.8a28 28 0 0 0-3.3 7.82c-.53 2.38-1.71 5.16-2.63 6.17-.98 1.08-2.05 4.81-2.57 8.96-.54 4.3-1.85 8.78-3.3 11.33-3.25 5.69-5.3 12.45-7.05 23.22-.8 4.95-2.11 10.84-2.92 13.1-.8 2.24-1.78 7.64-2.16 12a87 87 0 0 1-3.66 16.7l-2.97 8.79.31 41.7c.28 37.11.5 42.06 2.02 44.84.94 1.72 2.45 8.01 3.34 14 .9 5.98 2.28 14.25 3.07 18.37.8 4.13 2.32 12.26 3.4 18.09 2.04 11.1 3.85 16.44 7.03 20.8 1.07 1.45 2.34 5.64 2.87 9.46.53 3.77 1.69 7.67 2.58 8.65.9 1 2.23 4.08 2.96 6.87.74 2.78 2.26 6.23 3.38 7.66s2.55 5.03 3.17 8.02c.67 3.2 2.74 7.84 5.06 11.32 2.16 3.23 3.93 6.35 3.93 6.93s1.1 2.35 2.43 3.94a17 17 0 0 1 3.13 5.83 15 15 0 0 0 2.9 5.43c1.21 1.38 4.8 7.13 8 12.78 3.18 5.65 6.6 10.85 7.59 11.54 1 .7 2.39 2.6 3.1 4.22 1.82 4.16 9.8 14.95 15.87 21.46 14.47 15.53 41.46 42.28 44.76 44.36 2.06 1.3 4.36 3.1 5.1 4 .75.9 1.98 1.64 2.74 1.64s3.06 1.5 5.13 3.33 6 4.84 8.75 6.68c2.75 1.85 6.85 4.85 9.1 6.67s5.64 3.83 7.5 4.46 4.3 1.95 5.41 2.95 3.81 2.55 6 3.46c2.2.9 4.89 2.46 5.99 3.46s4.8 2.76 8.21 3.9a61 61 0 0 1 10.95 5.09c2.6 1.65 5.43 3 6.29 3.01.85 0 3.88 1.1 6.72 2.42a43 43 0 0 0 10.76 3.1c3.88.49 6.66 1.56 9.09 3.48 2.79 2.22 5.27 3.03 12.24 3.98 4.8.65 12.8 2.27 17.75 3.59 12.9 3.44 29.48 4.85 57.49 4.88 28.49.03 46.5-1.56 56.5-4.98 3.85-1.31 11.39-2.83 16.75-3.37 8.41-.85 10.33-1.4 14-4.03a20.5 20.5 0 0 1 9.25-3.68c2.75-.35 6.46-1.46 8.24-2.48a37 37 0 0 1 7.5-2.94 32 32 0 0 0 8.49-4.1c2.32-1.63 6.6-3.79 9.5-4.79s7.02-3 9.16-4.45 4.32-2.64 4.86-2.64c.53 0 2.3-1.12 3.93-2.5s4.18-2.8 5.65-3.17c2.32-.58 8.97-4.88 17.04-11.02 1.31-1 3.86-2.71 5.66-3.81 11.94-7.29 36.47-29.16 53.18-47.41 3.74-4.08 8.93-9.64 11.54-12.36s4.75-5.35 4.75-5.84 2.88-4.2 6.4-8.24 7.4-9.32 8.62-11.74a60 60 0 0 1 6.5-9.45c2.35-2.76 4.73-6.7 5.3-8.76a22 22 0 0 1 3.67-6.87c2.9-3.46 9.56-16.25 11.4-21.93a17 17 0 0 1 3.62-5.91 12.3 12.3 0 0 0 3.09-5.9 25 25 0 0 1 2.48-6.85c1.03-1.79 2.51-5.74 3.3-8.77a44 44 0 0 1 4.63-10.48c2.45-3.83 3.4-6.74 4.13-12.73.52-4.27 1.87-9.53 2.98-11.69 1.12-2.16 2.65-8 3.4-13s2.33-11.26 3.52-13.94c1.87-4.22 2.22-7.24 2.63-23 .38-14.5.9-19.53 2.57-25.13 2.96-9.9 2.9-40.17-.09-51.5-1.54-5.85-2.09-11.93-2.47-27.7-.46-18.9-.65-20.56-3-25.7a45 45 0 0 1-3.2-11.3c-.37-3.19-1.59-7.6-2.7-9.8-1.12-2.2-2.63-7.93-3.36-12.74-1-6.6-2.16-10.18-4.76-14.61-1.89-3.23-3.92-8.13-4.51-10.9a35 35 0 0 0-3.04-8.38 26 26 0 0 1-2.63-7.03 12.6 12.6 0 0 0-3.1-5.95c-1.33-1.25-3.04-4.32-3.8-6.83-2.3-7.55-6.66-16.27-10.74-21.44-2.11-2.69-3.84-5.89-3.84-7.11s-1.35-3.93-3-6.01-3-4.35-3-5.06c0-.7-1.06-2.56-2.36-4.11a41 41 0 0 1-4.14-6.3c-1.85-3.61-12.56-17.66-16.8-22.03-1.33-1.37-4.23-5.2-6.45-8.5-2.37-3.53-5.5-6.78-7.62-7.9-1.97-1.04-3.86-2.75-4.19-3.79-.62-1.96-17.36-18.7-21.56-21.56-2.69-1.83-20.47-16.74-23.09-19.36a11 11 0 0 0-4.73-2.38 10 10 0 0 1-4.94-3.08c-1.79-2.27-10.3-8.05-18.12-12.31a25 25 0 0 1-5.4-4.01c-1.05-1.16-2.68-2.11-3.61-2.11-.94 0-4.13-1.29-7.1-2.86a66 66 0 0 0-7.87-3.64c-1.36-.43-4.57-2.22-7.14-3.99a31 31 0 0 0-10.52-4.36c-3.22-.64-7.31-2.04-9.1-3.13-1.77-1.08-6.04-2.63-9.5-3.44a55 55 0 0 1-10.22-3.53c-2.7-1.4-5.87-2.05-10-2.05-4.94 0-7.37-.67-13.53-3.71-7.45-3.69-7.66-3.73-26.51-4.94-17.46-1.11-47.14-1.44-60.5-.66m568.85 6.7a49 49 0 0 1-6.19 2.56c-3.35 1.1-5.07 2.76-13.92 13.4-4.25 5.1-5.74 10.73-5.74 21.65 0 6.36 3.39 17.95 4.83 16.5 1.07-1.07 3.26-8.1 4.2-13.5.53-3.02 2.33-8.87 4.01-13 2.62-6.42 4.2-8.59 11-15.09 5.9-5.61 7.96-8.25 7.96-10.14 0-1.4-.71-2.83-1.58-3.16-1.96-.75-1.45-.84-4.57.79m-1084.6 3.26c-2.46 1-1.17 4 3.8 8.88 5.8 5.7 11.43 15.14 12.5 20.96a79 79 0 0 0 2.96 10c1.34 3.6 2.49 9.7 2.9 15.29.76 10.5 1.83 14.21 4.12 14.21 5.57 0 5.94-24.27.65-42.5-4-13.78-5.22-16.23-11.05-22.25-4.78-4.93-5.37-5.25-9.86-5.17-2.62.04-5.33.3-6.02.58m581.55 23.97c-.9.9-3.2 2.59-5.1 3.75s-7.22 4.65-11.83 7.74c-4.6 3.09-9.1 6.01-10 6.5-6.26 3.4-37.56 32.56-43.13 40.17l-7.6 10.39c-2.95 4.03-6.15 9.13-7.11 11.33-.97 2.21-2.52 4.65-3.45 5.43-2.35 1.94-7.36 12.94-8.66 18.98-.63 2.95-2.54 6.91-4.68 9.72-3.5 4.57-3.65 5.14-4.61 16.8-1.24 14.97-1.18 34.18.17 55.06 1 15.48 1.16 16.21 4.54 22.5 1.93 3.58 4 9.3 4.62 12.72a59 59 0 0 0 2.51 9.56 81 81 0 0 1 2.92 9.9c.84 3.6 2.4 8.07 3.46 9.94 2.77 4.85 3.24 9.71 4.27 44.38 1.2 40.56 2.68 55.65 6.83 69.5 1.25 4.15 1.41 21.66.21 22.4-.46.28-2.5-1.18-4.52-3.26-3.05-3.12-3.8-4.72-4.3-9.2a31 31 0 0 0-3.47-10.56c-1.58-2.82-2.87-5.93-2.87-6.92s-1.32-4.54-2.94-7.88c-2.23-4.6-3.21-8.62-4.07-16.55-.63-5.75-1.3-10.71-1.49-11.02s-.85-4.38-1.47-9.04-1.95-10.95-2.95-13.97c-1.18-3.55-2.06-10.23-2.5-18.82-.47-9.47-1.21-14.71-2.58-18.17a52 52 0 0 1-2.6-10.02c-.43-3.24-1.58-6.24-3.1-8.04-1.32-1.57-3.55-5.7-4.94-9.16s-3.38-7.2-4.4-8.3a24 24 0 0 1-3.44-5.8c-.87-2.08-2.2-4.02-2.96-4.3-.76-.3-1.95-1.96-2.66-3.71-.7-1.75-3.33-5.6-5.84-8.54-9.74-11.43-34.27-36.85-47.06-48.75a237 237 0 0 1-9.66-9.47 93 93 0 0 0-5.5-5.47 103 103 0 0 1-6.35-6.5c-3.67-4.07-12.8-12.26-15.77-14.14-1.96-1.25-3.46-.93-4.15.88-.36.93-1.07 12.29-1.58 25.25s-1.41 25.55-2 27.98c-.84 3.43-.74 6.02.42 11.5.83 3.9 1.94 14.96 2.46 24.58.75 13.7 1.39 18.48 2.93 22a43 43 0 0 1 2.67 9.5 30 30 0 0 0 3.1 9.16c1.33 2.3 2.9 6.44 3.5 9.22.6 2.77 2.17 6.53 3.5 8.33a57 57 0 0 1 4.45 7.5c1.12 2.31 2.51 4.5 3.1 4.86.57.36 1.88 2.51 2.9 4.79 1.64 3.67 9.85 12.54 24.49 26.45 2.49 2.37 5.96 4.8 7.72 5.42a35 35 0 0 1 6.62 3.44c1.88 1.28 3.96 2.33 4.62 2.33.65 0 2.24 1.13 3.54 2.51s4.64 3.57 7.42 4.87a54 54 0 0 1 8.75 5.23 359 359 0 0 0 9.94 7.39c8.66 6.22 22.38 19.38 23.82 22.85a15 15 0 0 0 4.16 5.07c1.64 1.2 4.07 4.53 5.42 7.39 3.72 7.92 6.2 11.88 8.86 14.14 1.34 1.13 2.98 3.85 3.66 6.05a78 78 0 0 0 4 9.52 66 66 0 0 1 3.97 10 52 52 0 0 0 3.25 8.47c1.55 3.03 2.23 6.96 2.8 16.01.41 6.8 1.67 15.47 2.89 20 2.55 9.5 4.49 35.85 3.15 42.98-1.66 8.88-4.85 8.33-7.65-1.31-2.29-7.86-9.12-25.95-11.4-30.17-1.04-1.92-2.2-6.77-2.6-10.78-.54-5.45-1.4-8.34-3.47-11.5-1.52-2.32-3.1-5.78-3.5-7.68-1.19-5.62-8.5-23.37-10.52-25.55a23 23 0 0 1-3.4-5.69c-.84-2.01-2-3.95-2.56-4.3s-1.88-2.3-2.93-4.32c-3.7-7.18-18.56-21.9-23.84-23.62-.95-.31-2.72-2.1-3.93-3.97a11.4 11.4 0 0 0-6-4.63 29 29 0 0 1-6.3-2.97 22 22 0 0 0-4.75-2.43c-1.25-.38-3.63-1.85-5.3-3.25-2.2-1.85-5.28-2.94-11.24-3.96a261 261 0 0 1-15.71-3.29c-14.37-3.58-18.25-4.06-33.13-4.06-26.45 0-46.87 4.58-46.87 10.5 0 .64 3.49 3.46 7.75 6.26s11.77 9.18 16.69 14.17 9.24 9.07 9.6 9.07c.86 0 16.7 18.33 19.96 23.1 6.63 9.7 11.94 16.7 16.54 21.8 2.78 3.08 6.21 7.18 7.64 9.1 4.25 5.71 12.1 13.65 15.46 15.64a229 229 0 0 1 11.21 7.65c4.44 3.19 10.27 6.45 12.95 7.24 2.68.8 5.67 2.33 6.64 3.4a10.6 10.6 0 0 0 4.91 2.61c1.73.36 4.95 1.69 7.15 2.95s7.04 2.76 10.75 3.33c5.3.82 7.67 1.8 11 4.49a48 48 0 0 0 8.75 5.46 28 28 0 0 1 7.24 4.87l6.13 6.36c4.28 4.42 10.03 14.84 12.73 23.08 1.15 3.5 2.72 7.26 3.5 8.36 1.97 2.81 1.82 19.73-.22 25.06-.84 2.2-2.8 7.91-4.34 12.69s-3.75 9.9-4.92 11.38-2.12 3.74-2.12 5c0 3.3-1.73 7.37-3.94 9.28-2.25 1.94-7.06 13.72-7.06 17.28 0 3.14 1.73 4.87 4.85 4.87 4.48 0 13.9-12.88 17.82-24.36 1.29-3.78 3.42-8.15 4.74-9.71 1.5-1.8 2.65-4.8 3.1-8.14.38-2.9 1.57-6.73 2.64-8.48 1.07-1.76 2.4-6.03 2.96-9.49.7-4.4 2.1-7.93 4.62-11.73 2.73-4.1 3.9-7.27 4.83-13 1.28-7.88 5.06-16.77 8.96-21.09a16 16 0 0 0 2.98-4.88c2.25-7.43 27.23-33.12 32.2-33.12.83 0 2.76-1.35 4.3-3 1.97-2.1 4.32-3.3 7.8-3.96 2.73-.52 7.84-2.34 11.34-4.04s9.68-4 13.73-5.09c4.06-1.1 8.56-2.58 10-3.3 1.45-.74 5.53-1.62 9.07-1.98q6.43-.63 8.5-2.56c1.13-1.05 5.88-3.59 10.56-5.63 4.67-2.04 11.03-5.63 14.13-7.98a96 96 0 0 1 7.5-5.27c5.2-2.8 24.37-24.98 24.37-28.2 0-.8 5.13-7.38 9.36-11.99 1.26-1.37 4.84-5.93 7.96-10.12 3.11-4.19 6.37-8.21 7.24-8.93.87-.73 2.4-2.92 3.41-4.88 1-1.97 4.01-5.65 6.68-8.2 2.67-2.53 9.49-9.38 15.15-15.22 11.82-12.16 11.9-12.7 2.86-17.12-5.15-2.51-6.34-2.65-30.67-3.55-15.66-.58-30.5-.58-38.9 0-16.09 1.1-18.36 1.48-27.76 4.62-3.94 1.32-7.99 2.4-9 2.42-1 0-4.08 1.35-6.83 2.98s-6.39 2.97-8.09 2.98-4.61 1.14-6.5 2.54a309 309 0 0 1-11.41 7.68 127 127 0 0 0-14.29 10.99c-3.45 3.2-6.63 5.81-7.06 5.81s-3 2.95-5.71 6.54c-2.72 3.6-5.88 7.17-7.04 7.93-1.15.75-3.3 3.77-4.79 6.7-4.36 8.62-7.87 14.24-9.7 15.57-1.11.8-1.95 3.34-2.4 7.24-.4 3.35-1.5 7.02-2.53 8.31-2.98 3.8-10.76 26.15-12 34.48-.7 4.77-2.13 9.43-3.72 12.17-2.09 3.61-2.7 6.34-3.28 14.5-.38 5.53-1.02 10.8-1.41 11.71-.9 2.12-4.2 3-5.48 1.46-1.6-1.92-3.16-10.32-4.13-22.18-.5-6.08-1.63-12.8-2.52-14.93-1.15-2.74-1.88-9.38-2.53-22.93-1.1-22.9-2.45-37.83-3.87-42.56-.57-1.92-1.04-8.07-1.04-13.65 0-8.73.35-10.92 2.49-15.51 1.37-2.94 2.5-6.36 2.5-7.6s1.52-3.93 3.37-6a72 72 0 0 0 6.11-8.16c4.29-6.86 13.88-14.25 21.01-16.2 2.2-.6 5.47-2.4 7.29-4 1.81-1.59 4.35-2.89 5.63-2.89s3.54-.95 5.01-2.11c1.88-1.48 5.16-2.4 10.89-3.1 6.45-.76 8.92-1.54 11.56-3.63 6.12-4.84 6.7-5.13 12.19-6.13 7.75-1.42 15.75-4.87 23.7-10.2 3.63-2.45 17.9-16.24 22.74-21.97 3.44-4.1 9.5-13.31 9.5-14.47 0-.6 1.52-3.08 3.36-5.5a66 66 0 0 0 5.14-7.89c.99-1.92 2.86-4.5 4.15-5.7s2.36-3.06 2.36-4.12c0-1.04 1.35-3.6 3-5.68s3-4.1 3-4.51c0-.4 2.14-3.47 4.75-6.8 2.61-3.35 6.1-7.97 7.75-10.28s4.46-5.98 6.25-8.15c5.61-6.82 3.72-10.4-6.9-13.06-5.42-1.36-8.76-1.49-20.42-.75-28.62 1.8-44.26 3.97-54.93 7.59-5.5 1.87-11.93 3.7-14.28 4.06a20 20 0 0 0-7.8 3.46c-1.94 1.54-4.82 3.09-6.4 3.44-1.59.34-3.44 1.3-4.13 2.13s-2.63 2.2-4.32 3.05C839 738.98 808 771.34 808 773.8c0 .4-1.8 2.92-4 5.58s-4 5.8-4 7c0 1.18-.9 3.82-2 5.87a40 40 0 0 0-3.05 8.46c-.58 2.61-2.1 6.1-3.36 7.77-3.97 5.22-5.4 8.88-6.46 16.56-.57 4.1-1.7 9.35-2.52 11.66s-2 7.93-2.6 12.5c-1.92 14.12-4.4 16.54-8.3 8.05-1.98-4.3-2.25-7.09-2.9-29.75a2354 2354 0 0 0-1.4-38.31l-.65-13.31 3.73-7.2c2.05-3.94 4.53-8.08 5.5-9.18.98-1.1 2.51-3.45 3.4-5.23s4.26-6.05 7.46-9.5 6.6-7.62 7.57-9.27 3.54-4.24 5.7-5.76 4.47-4 5.12-5.5 4.06-6.12 7.57-10.24c3.5-4.12 7.2-9.1 8.2-11.07 1.02-1.96 2.55-4.15 3.42-4.87.86-.72 1.57-1.86 1.57-2.54s1.1-2.87 2.46-4.86a31 31 0 0 0 3.58-7.89c.68-2.6 2.69-5.88 5.12-8.39 3.6-3.7 4.08-4.83 4.89-11.24.5-3.92 1.61-8.52 2.5-10.22.87-1.7 2.01-5.72 2.53-8.93a43 43 0 0 1 3.48-10.73c2.4-4.64 2.59-6.14 3.59-29.83.68-16.07.73-33.53.16-49.16l-.9-24.23-2.89-3.02c-3.26-3.4-5.34-3.77-7.72-1.39m307.2 10.3a60.7 60.7 0 0 0-27.38 15.73c-3.8 3.76-7.51 8.3-8.27 10.1a79 79 0 0 1-4.93 8.8c-4.2 6.58-6.92 18.76-6.1 27.4 1.25 13.3 2.7 19.26 5.69 23.4a67 67 0 0 1 4.95 8.21c2.8 5.77 12.33 14.15 20.54 18.06 18.65 8.88 43.73 8.8 61.5-.17 7.33-3.7 17.82-13.4 21.25-19.62l3.43-6.22c.65-1.17 1.72-7.75 2.38-14.62 1.01-10.61.96-13.96-.37-22.17-.85-5.32-2.7-12.1-4.12-15.1-1.41-2.98-2.57-5.77-2.57-6.2 0-.88-3.98-5.78-11.5-14.18-11.14-12.44-35.7-18.49-54.5-13.42m-727 3.67c-8.44 2.26-14.08 5.36-15.88 8.72-.9 1.66-3.87 5.31-6.62 8.12a61 61 0 0 0-8 10.43 77 77 0 0 1-5.12 7.98 46 46 0 0 0-4.1 6.65c-3.7 7.42-7.58 13.99-9.63 16.27-1.89 2.1-1.92 2.4-.4 3.91.9.9 4.07 1.97 7.05 2.37a19.3 19.3 0 0 1 10.01 4.26c2.54 1.93 5.98 3.81 7.64 4.18 1.67.37 3.29 1.09 3.6 1.6 1.24 2 12.7 8.9 16.48 9.92 2.2.59 5.62 2.52 7.6 4.28s7.72 5.46 12.77 8.21c21.78 11.87 26.92 15.52 29.43 20.87 1.2 2.54 2.85 4.63 3.66 4.63 2.09 0 6.28-7.03 7.53-12.61.58-2.58 2.16-6 3.52-7.62 1.35-1.6 2.75-4.13 3.1-5.6.34-1.47 1.8-4.8 3.23-7.4 2.49-4.5 2.52-4.8.86-6.47s-1.87-1.63-4.14.82c-4.5 4.85-16.2 4.58-22.3-.5a40 40 0 0 0-6.04-4c-5.15-2.65-4.28-6.5 3.33-14.62 2.5-2.66 3.8-5.54 5.46-12 1.97-7.73 2.06-9.27 1-17-2.38-17.49-2.55-17.92-9.33-24.78-5.7-5.77-6.96-6.52-15.47-9.25-10.43-3.35-11.55-3.42-19.24-1.37m738.48 14.32c-3.86.37-7.68 1.05-8.5 1.51-6.67 3.77-15.34 10.38-17.58 13.4a107 107 0 0 1-5.9 7.17 27 27 0 0 0-4.76 8c-.85 2.48-2.31 6.52-3.25 9-2.1 5.6-1.6 17.1.87 19.84.89.99 2.23 3.56 2.97 5.73a12.2 12.2 0 0 0 4.44 5.93c14.44 9.35 15.1 9.64 22.61 10.21 11.63.88 17.79-.27 22.81-4.27 2.37-1.88 5.88-3.93 7.81-4.55 3.3-1.07 6.48-3.57 13.02-10.27 1.55-1.59 4.32-5.84 6.15-9.45 3.2-6.3 3.33-7.03 3.28-17.62-.06-14.81-1.87-19.03-11.59-27.02-8.82-7.26-16.66-9.1-32.38-7.6m161.4 9.76c-1.63 4.16-2.32 24.05-1 28.91.61 2.26 2.2 5.28 3.54 6.72 1.74 1.88 2.6 4.26 3.06 8.4.63 5.68 1.15 7.28 4.05 12.28.88 1.54 1.45 5.26 1.45 9.69.02 6.94.16 7.35 4.01 11.8 4.28 4.94 4.62 5.88 5.38 14.78.27 3.25 1.36 7.18 2.5 9 1.1 1.8 2.3 5.72 2.67 8.74a47 47 0 0 0 3.46 11.49c2.37 5.12 2.87 7.77 3.4 18 .58 11.3.84 12.46 4.52 20 3.29 6.75 3.98 9.33 4.47 16.5 1.02 15.25 3.24 17.27 5.42 4.92 1.58-9.02.88-19.08-1.8-25.9-1.34-3.4-2.32-9.5-3.02-18.78-.56-7.56-1.49-16.33-2.05-19.5-1.77-9.92-1.97-27.6-.38-34.55 1.96-8.6 1.95-27.52-.02-29.16-1.18-.97-1.94-.72-4 1.34-2.3 2.3-2.54 3.3-2.54 10.52 0 12.77-2.26 15.74-8.26 10.86-2.31-1.89-2.86-3.3-3.41-8.7-.6-5.92-1-6.78-5-10.66-3.96-3.86-4.33-4.63-4.33-9.2 0-2.74-.88-7.84-1.95-11.34-1.08-3.49-2.44-11.3-3.03-17.35-1.07-10.8-3.27-19.92-5.1-21.05-.5-.31-1.42.7-2.03 2.24m-905.39.43c-6.92 2.78-13.5 10.46-13.5 15.76 0 3.7 2.26 7.12 4.7 7.12.58 0 1.6.65 2.26 1.45s2.85 1.97 4.87 2.62a21 21 0 0 1 6.67 3.93 34 34 0 0 0 7.86 4.88c4.62 2 5.04 2.02 8.33.46 4.37-2.07 6.13-4.76 6.93-10.58 1.18-8.6-.33-15.19-4.66-20.44-2.15-2.6-4.93-5.3-6.19-5.99-3.37-1.87-11.6-1.5-17.27.79m412.03 2.17c-.43.99-.5 2.08-.15 2.42 1.01 1.01 1.83-.41 1.36-2.38-.41-1.75-.47-1.75-1.2-.04m-7.5 6.64c-1.15 2.15-1.37 7.04-.43 9.49 1.7 4.43 6.39-1.72 6.39-8.39 0-2.55-.39-3.03-2.47-3.03-1.4 0-2.9.83-3.5 1.93m-7.54 19.5c-1.88 3.97-3.35 5.75-5.1 6.19-2.95.74-3.5.3-4.86-3.92-1.76-5.47-3.05-3.12-2.77 5.08.3 8.64-2.4 22.17-5.74 28.68-2.27 4.44-2.48 8.4-.71 13.46 1.95 5.6 3.4 4.85 3.9-2.05.39-5.45.82-6.53 3.52-8.8 1.87-1.56 4.15-5.24 5.8-9.35 1.49-3.73 3.52-7.21 4.51-7.74 1-.53 3.21-3.42 4.93-6.42 2.83-4.95 3.1-6.14 2.82-12.75-.23-5.9-.61-7.35-1.98-7.61-1.2-.23-2.45 1.28-4.32 5.24m-535.36 1.31a91 91 0 0 0-1.61 9.51c-.48 4.13-1.42 6.66-3.34 8.95-2.46 2.92-2.68 3.91-2.68 11.9v8.73l-3.98 2.7c-3.6 2.45-4.21 2.58-6.38 1.34-1.34-.77-3.13-3.37-4.04-5.86-1.2-3.26-2.4-4.75-4.43-5.47-4.12-1.45-4.88.44-3.97 9.95 1.09 11.47.36 37.63-1.31 47-1.63 9.1-3.03 38.81-2.02 42.83.37 1.47 1.07 2.67 1.55 2.67 1.9 0 2.78-5.96 2.3-15.74l-.49-10.25 4.05-3.75c3.37-3.14 4.22-4.75 5.17-9.76 1.4-7.4 4.8-22.23 6.67-29.18.77-2.85 2.58-6.6 4.02-8.3 1.98-2.36 2.8-4.7 3.29-9.5.5-4.84 1.19-6.8 2.87-8.2 1.5-1.24 2.55-3.74 3.28-7.82.58-3.3 2.12-7.63 3.42-9.62a25 25 0 0 0 3.9-17.12c-1.18-9.31-4.51-11.97-6.27-5.01m-32.5 12.94c-.97.98-.75 10.31.25 10.31 1.07 0 2.09-3.5 2.1-7.2.02-2.71-1.16-4.28-2.34-3.1m564.72 29.8c-.96 2.5 1.02 3.9 3.6 2.52 2.61-1.4 2.2-3.4-.8-3.84-1.3-.2-2.42.33-2.8 1.32m-14.02 13.75a46 46 0 0 0-4.14 5.81c-1.17 1.96-3.32 4.2-4.78 4.98-3.08 1.65-4.43 4.63-4.4 9.78.02 5.26 1.1 6.53 4.86 5.7 3.67-.8 4.67-2.35 5.63-8.71.38-2.58 1.54-5.45 2.58-6.39 1.03-.93 2.13-3.32 2.45-5.3.32-2 .78-4.63 1.04-5.87.25-1.24.08-2.25-.39-2.25-.46 0-1.75 1.01-2.85 2.25m-20.64 30.53c-3.74 4.13-7.27 28.42-4.8 33.03 1.18 2.2 4.5 2.97 5.54 1.29.3-.5 1.2-4.3 2-8.43.79-4.14 2.15-8.9 3.01-10.58 2.16-4.17 2.95-11.01 1.66-14.34-1.25-3.25-4.91-3.73-7.41-.97m-149.35 9.76c-.59 1.51 2.16 5.46 3.8 5.46 1.29 0 1.01-4.43-.35-5.8-1.62-1.62-2.74-1.51-3.45.34m-230.64 5.9c-.79.78-1.73 3.27-2.09 5.52s-2.83 8.02-5.48 12.82c-3.24 5.83-5.07 10.48-5.53 14.05a52 52 0 0 1-2.63 10.23c-1.94 4.9-5.13 17.18-8.51 32.7-1.96 8.99-1.26 12.54 2.74 13.8 3.73 1.19 6.49-1.95 7.24-8.25.38-3.2 1.97-9.63 3.52-14.31s3.1-11.12 3.44-14.32 1.32-7.48 2.16-9.5c.85-2.03 2-7.28 2.55-11.67.55-4.4 1.54-8.98 2.2-10.18 7.85-14.47 9.1-18.51 6.48-21.13-1.62-1.62-4.34-1.51-6.09.23m813.65 3.06c-.88 2.3 1.63 18.1 4.3 27.01 3.1 10.35 10.34 45.95 10.34 50.81 0 4.18 2.36 10.69 3.88 10.69 1.2 0 3.8-2.53 5.11-4.98.64-1.2.63-4.38-.03-9.17-.55-4.05-1.62-12.3-2.39-18.35-1.06-8.4-2.32-13.24-5.34-20.5-2.4-5.76-4.2-11.93-4.57-15.68-.34-3.4-1.49-8.12-2.56-10.5a147 147 0 0 1-3.14-7.57c-1.28-3.46-4.55-4.49-5.6-1.76m-575.35 4.69c0 2.63.78 5.5 1.99 7.32 1.1 1.66 1.99 4.7 2 6.79 0 3.1.73 4.5 4 7.71 4.78 4.69 5.01 7.25 1 11-1.65 1.54-3 3.54-3 4.43 0 2.08 2.78 3.19 4.27 1.7a4 4 0 0 1 2.42-1.13c1.99 0 12.66 10.05 14.01 13.2.66 1.54 1.67 2.8 2.23 2.8s1.9 1.72 2.98 3.82c1.07 2.1 2.68 4.43 3.59 5.18 1.28 1.07 1.5 2.37 1 6.03l-.65 4.68 6.47 5.14c3.55 2.83 7.19 5.15 8.07 5.15 2.58 0 2.03-5.72-.89-9.18-1.37-1.64-2.5-3.6-2.5-4.36s-1.58-2.97-3.5-4.9c-2.05-2.05-3.5-4.48-3.5-5.9 0-2.31-7.5-12.66-9.18-12.66-1.75 0-4.82-4.12-4.82-6.47 0-1.35-1.29-3.94-2.87-5.75-1.57-1.8-3.2-4.4-3.6-5.78-.42-1.37-1.6-3.9-2.64-5.62-1.04-1.71-1.89-3.7-1.89-4.43 0-3.23-4.22-9.8-7.05-10.97-2.94-1.22-3.64-2.64-4.18-8.47-.17-1.92-.9-3.11-2.02-3.33-1.45-.27-1.75.42-1.74 4m-442.96 32.27a5.5 5.5 0 0 0-.88 3.75c.32 2.2 2.6 3.72 11.41 7.58 3.24 1.41 8.45 7.99 11.48 14.48a54 54 0 0 0 4.39 7.54c1.55 2.11 2.66 5.36 3.08 9 .37 3.13 1.98 8.63 3.59 12.2 1.6 3.58 3.56 10.5 4.35 15.4 1.71 10.68 2.88 12.4 5 7.3 1.03-2.45 1.53-6.96 1.53-13.82 0-8.68-.36-10.94-2.4-15.28a54 54 0 0 1-3.48-10.92c-.6-3.2-1.98-7.08-3.1-8.64a21 21 0 0 1-2.76-6.33c-.88-4.06-16.1-21.8-19.6-22.86-4.13-1.24-11.37-.9-12.61.6m1216.64-.44c-3.72 1.12-15.34 11.4-17.36 15.35-.88 1.73-3.27 4.97-5.3 7.2-2.55 2.78-3.93 5.4-4.4 8.34a32 32 0 0 1-2.54 7.94c-1.18 2.34-2.1 7.1-2.55 13.16-.55 7.44-1.28 10.58-3.35 14.5-2.44 4.62-2.67 6.1-3 19.5-.37 15.49.5 20.4 3.54 19.81 2.04-.39 4.62-9.17 6.27-21.31.6-4.4 1.93-11.6 2.96-16s2.1-11.55 2.39-15.88c.46-7.02.84-8.23 3.48-11 1.63-1.72 3.28-4.7 3.67-6.62.92-4.5 6.05-12.3 12.73-19.3 4.65-4.9 5.85-5.62 10.27-6.17 6.64-.84 8-1.7 8-5.1 0-4.7-6.96-6.77-14.8-4.41m-501.13 2.55c-1.55 1.55-2.1 4.57-1.01 5.65.3.31 1.47.32 2.58.03 2.45-.64 4.03-4.25 2.62-6-1.33-1.65-2.3-1.58-4.19.32m-668.61 2.98c-1.87 2.25-2.57 12.96-.9 13.98 2.55 1.58 5.06-3.37 4.73-9.37q-.45-8.67-3.83-4.6m654.51 6.76a28 28 0 0 1-6.11 2.5c-2.35.68-4.83 2.24-5.72 3.61a8.6 8.6 0 0 1-3.86 3.13c-1.26.39-3.9 2.33-5.9 4.32a212 212 0 0 1-6.72 6.4l-3.1 2.78-5.16-1.69c-6.09-1.99-7.77-1.32-9.33 3.72-1.7 5.51-4.72 9.73-7.88 11.04-2.99 1.24-5.69 5.92-5.69 9.86 0 1.19-1 2.5-2.36 3.13-1.3.59-3.12 2.65-4.04 4.59-1.63 3.43-1.77 3.5-6.14 2.84-4.23-.64-4.52-.53-5.53 2.14a90 90 0 0 0-2.43 8.66c-.75 3.21-2.15 6.71-3.11 7.77-1.07 1.18-1.38 2.28-.82 2.85.57.57 3.44-1.36 7.43-5l10.57-9.64c3.98-3.63 11.72-7.1 16.18-7.25 3.37-.12 2.71-2.08-.7-2.08-3.24 0-8.75-4.06-7.73-5.7.35-.58 1.92-1.3 3.49-1.61 1.85-.37 3.76-1.95 5.45-4.51 1.82-2.74 4.84-5.14 9.93-7.87 4.64-2.5 7.78-4.9 8.61-6.62.72-1.48 2.07-2.7 3-2.7s2.9-.79 4.36-1.75c16.85-11.04 20.82-14.06 22.16-16.82a7.4 7.4 0 0 1 4.75-4.01c1.8-.52 3.46-1.5 3.68-2.17.56-1.68-4.73-1.62-7.28.08m-189.05 43.8c-.38.62-.76 5.97-.84 11.9-.1 7.32-.58 11.27-1.49 12.37-1.72 2.07-.02 2.14 3.82.16 3.53-1.83 4.14-5.16 3.04-16.55a525 525 0 0 0-.89-8.75c-.19-.76-3.05-.08-3.64.87M855.5 797c-.34.55.3 1 1.44 1 1.13 0 2.06-.45 2.06-1s-.65-1-1.44-1c-.8 0-1.72.45-2.06 1m375.29 2.7c-5.7 2.27-6.23 7.6-1.36 13.4 1.55 1.84 2.5 4.65 2.97 8.69.75 6.64 2.95 9.58 6.77 9.04 3.15-.45 5.07-7.84 4.53-17.52-.43-7.92-2.09-11.43-6.46-13.68-2.37-1.23-3.24-1.22-6.45.07m-858.05.55c-2.85 2.16-3.74 6.52-3.74 18.32 0 10.1.23 11.66 2 13.43 1.1 1.1 2.83 2 3.85 2 3.47 0 4.86-3.14 5.73-13 1.36-15.37 1.18-18.97-1.03-20.59q-3.59-2.62-6.81-.16m302.26 1.1c0 1.8 3.26 4.65 5.33 4.65 2.18 0 2.26-4.56.09-5.4-2.7-1.03-5.42-.66-5.42.75m12 7.95c0 2.74 1.73 4.7 4.14 4.7 2.44 0 3.04-1.4 1.9-4.42-1.34-3.5-6.04-3.72-6.04-.28m-505.8 11.9c-2.34 2.34-1.33 4.85 2.55 6.37 8.43 3.3 12.92 6.25 18.91 12.43 9.18 9.46 9.56 9.96 11.09 14.43a22 22 0 0 0 3.88 6.69c1.6 1.67 2.97 4.9 3.84 9a57 57 0 0 0 4.44 12.23c1.74 3.3 3.12 7.45 3.15 9.5.07 5.07 2.14 10.65 3.94 10.65 4.53 0 4.91-20.4.52-28a42 42 0 0 1-3.5-8.5c-.66-2.48-2.02-5.4-3.01-6.5-1-1.1-2.28-3.71-2.85-5.8-.59-2.17-2.8-5.58-5.17-7.94-2.27-2.28-4.76-5.35-5.53-6.83-1.4-2.72-4.33-5.37-10.96-9.93-2-1.37-5.24-3.96-7.2-5.75-2.96-2.69-4.38-3.25-8.24-3.25-2.56 0-5.2.54-5.86 1.2m1238.3 0c-1.1.64-2.46 1.77-3.02 2.53-1.1 1.46-6.3 4.78-13.13 8.38a17 17 0 0 0-6.31 6.04c-1.2 2.12-2.58 3.85-3.08 3.85s-1.65 1.46-2.57 3.25-3.4 5.15-5.52 7.48c-2.13 2.32-3.87 4.92-3.87 5.78 0 .85-1.12 4.22-2.5 7.49-1.91 4.54-2.5 7.7-2.5 13.4 0 8.37-.9 11.51-4.59 15.88l-2.53 3.01.38 19.1c.21 10.51.72 20.04 1.13 21.17.58 1.6.2 2.3-1.72 3.18-3.08 1.4-4.1 4.48-6.63 20.16-1.1 6.82-2.69 13.44-3.52 14.72-1.94 2.95-2.04 9.38-.16 9.38.75 0 2.15-2.06 3.11-4.57 1.03-2.68 2.7-5 4.03-5.61 2.55-1.16 4.5-4.73 4.5-8.23 0-1.27 1.33-4 2.96-6.04s3.27-4.7 3.64-5.87c.38-1.19 1.7-3.73 2.95-5.67 1.25-1.93 2.57-5 2.95-6.8.49-2.37 1.79-4 4.59-5.77 2.3-1.45 3.91-3.24 3.91-4.36 0-2.9 12.65-15.08 15.66-15.08 3.55 0 6.34-1.76 6.34-4.02 0-4-9.16-3.53-11.43.58-1.44 2.62-2.66 3.4-5.27 3.43-1.22 0-3 1.16-4 2.58a172 172 0 0 1-5.3 6.93 175 175 0 0 0-5.34 6.99c-1.21 1.73-2.58 2.52-4 2.32-2.7-.39-3.3-4.25-1.65-10.71.65-2.53 1.36-9.43 1.58-15.33.32-8.39 1.06-12.76 3.4-20.1 1.86-5.78 3.01-11.5 3.01-14.93 0-4.97.33-5.84 3.03-8.11a17.4 17.4 0 0 0 4.37-6.34c1.79-5.03 9.12-15.96 11.6-17.3 1.09-.57 2.66-2.37 3.5-3.98.89-1.72 3.48-3.92 6.26-5.31 2.6-1.3 6.77-3.42 9.24-4.69s5.59-2.8 6.92-3.41q5.3-2.4.2-5.04c-3.54-1.83-7.8-1.97-10.62-.35m-711 .78c-.89 1.45 2.29 6.25 3.81 5.74.66-.22 1.19-1.7 1.19-3.31 0-2.23-.51-3-2.16-3.23-1.18-.17-2.46.2-2.83.8m517.42 29.09a20 20 0 0 0-3.9 6.75c-.92 3.25-.68 4.37 2.07 9.82 2.64 5.24 3.72 6.4 7.28 7.75 2.3.88 5.25 1.6 6.56 1.6 3.28 0 8.44-4.18 10.49-8.5 1.69-3.55 1.67-3.68-1.26-9.95-4.28-9.14-5.99-10.55-12.77-10.55-4.96 0-5.92.35-8.47 3.08m-859.1 2.67c-4.85 5.01-6.83 8.1-6.83 10.68 0 2.18 6.21 8.83 10.3 11.03 4.66 2.51 7.53 1.55 13.62-4.57 6.81-6.85 6.8-9.19-.06-16.45-4.4-4.65-5.68-5.44-8.8-5.44-3.03 0-4.4.8-8.23 4.75m579.73 32.18c-1.5 1.67-1.6 2.3-.58 3.55 2.62 3.15 9.6.76 8.87-3.05-.53-2.81-5.9-3.14-8.29-.5m-574.05 6.47c-2.31 4.71-2.51 5.88-1.6 9.25.56 2.12 1.5 7.23 2.07 11.35 1.42 10.28 5.97 29.88 7.75 33.38.8 1.59 2.07 6.99 2.83 12 .96 6.44 2.29 10.83 4.48 14.88 5.6 10.34 8.63 6.42 6.49-8.41-.74-5.14-2-11.15-2.8-13.35s-1.75-6.92-2.14-10.5-2-11.9-3.59-18.5c-3.06-12.73-5.55-29.8-4.58-31.37 1.19-1.92-.67-4.13-3.45-4.13-2.42 0-3.2.77-5.46 5.4m857.86-.63c-3.7 3-4.47 5.95-5.3 20.53-.46 7.8-1.37 15.55-2.03 17.2s-1.63 5.7-2.15 9c-1.33 8.52-6.6 28.6-8.49 32.4-.94 1.89-1.34 4.21-.97 5.69 1.72 6.84 8.58 1.81 10.33-7.57.6-3.26 2.87-9.7 5.02-14.3 2.5-5.32 4.17-10.6 4.62-14.52a65 65 0 0 1 2.51-11.45c2-5.79 3.79-30.3 2.6-35.67-.76-3.51-2.87-3.96-6.14-1.3m-296.84 1.78c-1.96 1.81-3.76 2.44-7 2.44-3.5 0-4.79.51-6.39 2.55-1.1 1.4-3.72 3.7-5.82 5.1a63 63 0 0 0-6.82 5.37 15 15 0 0 1-7 3.5c-6.6 1.09-7.18 1.4-9.76 5.26-1.37 2.05-5.7 7.02-9.62 11.06s-7.12 7.82-7.12 8.41c0 1.58-6.1 6.75-7.96 6.75-.88 0-2.61.71-3.86 1.58-1.81 1.28-2.87 1.38-5.37.5-6.34-2.2-8.38-.54-9.34 7.67-.38 3.16-1.76 7.63-3.08 9.93-2.6 4.53-2.97 7.37-1.36 10.39 1.53 2.84 2.7 2.38 4.9-1.92 1.07-2.11 3.22-4.67 4.76-5.68 1.55-1 4.74-3.98 7.1-6.6 2.37-2.62 5.3-5.07 6.5-5.44 1.22-.36 3-1.36 3.97-2.2 1.58-1.4 2.29-1.37 7.3.34 5.03 1.7 5.8 1.74 8.24.37q2.7-1.52 2.7-3.98c0-2.14-.55-2.53-4.29-3.03-2.35-.32-5.05-1.35-6-2.29-1.62-1.62-1.49-1.91 2.29-5.21a92 92 0 0 1 7.5-5.85c1.92-1.3 6.31-4.92 9.75-8.05 3.43-3.13 7.77-6.11 9.63-6.62 2.03-.57 3.6-1.73 3.9-2.9.29-1.08 1.8-2.52 3.37-3.2a31 31 0 0 0 5.23-3.02 22 22 0 0 1 6.24-2.82c3.8-1.02 6.88-4.75 6.88-8.32 0-.84 1.51-1.8 3.6-2.3 3.97-.94 4.6-2.36 1.55-3.49-1.42-.52-2.75-.04-4.62 1.7m-296.84 14.08c-1.15 1.15.38 2.36 3 2.36 2.16 0 2.36-.23 1.31-1.5-1.3-1.57-3.22-1.95-4.3-.86M192.5 912c-1.09 1.75.47 4.75 2.78 5.37 7.02 1.88 11.22-.94 6.78-4.54-2.44-1.97-8.53-2.5-9.57-.83M644 913.3c0 3.22 4.8 4.81 8 2.67 1.3-.87 1.24-1.2-.44-2.49-2.41-1.84-7.56-1.96-7.56-.18m-407.17 3.45c-.61 1.51-1.33 6.68-1.6 11.48-.7 12.88-2.86 13.75-9.35 3.74-4.46-6.89-12.98-13.97-16.81-13.97-5.36 0-3.98 3.45 4.79 11.92 4.32 4.18 8.2 8.72 8.6 10.09a16 16 0 0 0 3.04 4.99 32 32 0 0 1 4.03 6c.96 1.92 2.1 3.73 2.55 4.02.43.29 1.72 2.54 2.86 5a51 51 0 0 0 5.56 8.8c2.44 3.03 3.5 5.35 3.5 7.69 0 4.13 2.54 7.11 4.6 5.4 2.08-1.72 1.74-13.04-.66-21.91-1.15-4.26-2.4-13.33-2.89-21-.85-13.3-3.73-25-6.15-25-.52 0-1.45 1.24-2.07 2.75m425.7 3.2c-.66 1.07 10.68 13.05 12.35 13.05.58 0 1.64 1.11 2.35 2.48 1.76 3.35 18.72 17.04 22.2 17.91 1.56.4 3 1.57 3.3 2.7.29 1.1 1.82 2.66 3.4 3.48 3.2 1.65 3.89 5.34 1.37 7.43-.83.68-1.5 2.36-1.5 3.73 0 2.17.33 2.4 2.57 1.84 3.04-.76 8.37 2.16 10.84 5.94 1.12 1.7 2.92 2.68 5.8 3.14 2.53.4 5.08 1.64 6.47 3.14 2 2.15 2.37 2.25 2.92.8.36-.92-.02-2.44-.84-3.38a19 19 0 0 1-2.6-5.08c-1.24-3.67-5.32-9-11.88-15.48-2.32-2.3-4.73-5.63-5.35-7.41-1.27-3.65-2.01-3.89-5.32-1.72-2.96 1.94-5.05 1.12-7.57-2.95-1.1-1.78-4.49-5.22-7.53-7.65s-5.75-5.1-6.01-5.92c-.45-1.41-2.35-2.8-14.83-10.75-2.8-1.8-5.47-3.93-5.93-4.75-.95-1.69-3.32-2-4.22-.54m203.12 2.73c-1.24 1.24-.62 4.31.86 4.31.83 0 1.5-.87 1.5-1.94 0-2.09-1.32-3.4-2.36-2.37m-160.46 6.45c.18 1.85.77 3.25 1.32 3.11 1.49-.37 1.21-5.51-.32-6.02-.96-.32-1.23.48-1 2.91M687.5 963c-.35.57.49 1 1.94 1 1.4 0 2.56-.45 2.56-1s-.87-1-1.94-1-2.22.45-2.56 1m-435.31 25.21c-1.74 1.74-1.51 10.28.31 11.79 2.42 2.01 4.5-.52 4.5-5.47 0-4.84-2.72-8.41-4.81-6.32m912.31 26.53c-2.2.23-4.84 1.16-5.87 2.08-3.19 2.87-7.79 10.17-8.83 14a99 99 0 0 1-3.87 10.3l-2.88 6.6 2.6 7.9c3.09 9.34 6.65 13.6 14.22 16.98 12.1 5.4 21.79 1.9 36.58-13.18 8.77-8.94 9.45-9.42 13.45-9.42 3.47 0 4.75.58 7.23 3.25 4.33 4.66 7.1 10.42 6.3 13.06-1.01 3.26-7.27 11.5-9.23 12.13-.93.3-2.47 1.91-3.41 3.58-1.04 1.83-3.47 3.77-6.14 4.92-5.53 2.37-6.25 3.5-4.19 6.64 2.44 3.72 7.56 5.83 12.08 4.98 5.43-1.02 16.56-12.03 20.76-20.54 2.99-6.05 3.2-7.17 3.18-17 0-9.62-.25-10.99-2.87-16.02-3.34-6.39-7.71-11.72-11.8-14.37-2.18-1.42-4.93-1.9-11.59-2-4.8-.07-9.93.2-11.4.62-1.64.46-6.22 4.82-11.75 11.17-8.34 9.58-9.45 10.5-13.9 11.45-5.6 1.2-8.8.63-11.84-2.1-3.4-3.07-3.7-6.4-1.23-13.04 2.74-7.31 8.68-12.22 15.78-13.02 5.23-.59 7.61-2.92 6.02-5.9-1.87-3.48-6.04-4.22-17.4-3.07m-722.02 21.28c-5.8 1.15-51.38 4.43-61.98 4.46-4.95.01-9.6.4-10.32.88-2.01 1.3-.46 14.75 2.46 21.35 3.72 8.42 9.26 9.07 11.35 1.33 2.97-11.05 16.9-10.65 20.9.6a33 33 0 0 0 3.25 6.51c1.18 1.68 1.86 4.39 1.86 7.37 0 4.14-.47 5.19-3.88 8.6-3.58 3.58-4.32 3.88-9.44 3.88-7.24 0-8.02 1.88-3.87 9.26a61 61 0 0 1 4.12 8.9c1.28 4.03 8.5 12.84 10.5 12.84.7 0 2.01-1.69 2.92-3.75 2.9-6.56 8.35-13.42 23.44-29.5 1.99-2.12 12.82-12.3 21.5-20.21 5.38-4.9 10.68-10.38 11.78-12.16l2-3.24-2.03-3.8c-1.12-2.1-2.04-4.86-2.04-6.15s-1.31-3.66-2.92-5.27c-2.65-2.64-3.52-2.91-9.25-2.81a73 73 0 0 0-10.35.9M1351 1047.5a1.5 1.5 0 1 0 3 0 1.5 1.5 0 0 0-3 0m-933.85 3.64c-2.82.82-3.25 1.32-2.72 3.16.34 1.21 1.13 4.67 1.75 7.7 2.14 10.54 5.13 10.79 15.01 1.25 8.2-7.9 9.44-9.79 7.76-11.81-1.4-1.69-16.28-1.88-21.8-.3m-177.76 40.76c-3.37 2.06-4.8 5.3-3.07 7.02 1.28 1.28 20.54 1.46 22.52.2.73-.46 1.18-1.92 1-3.23-.75-5.32-14.03-7.9-20.45-3.99m1117.96.55c-3.55 1.54-5.36 5.3-3.2 6.66.74.47 5.23.87 9.98.88 9.65.01 11.93-1.13 9.88-4.97-2.13-3.99-10.46-5.27-16.66-2.57m-234.85 1.5a13 13 0 0 0-3.85 2.88 10 10 0 0 1-4.56 2.65c-3.76.83-10.88 7.94-16.7 16.66l-4.89 7.36v16.18c0 15.36.12 16.31 2.29 19a58 58 0 0 1 4 5.7c6.78 11.44 13.63 16.95 26.08 21 7.76 2.52 9.96 2.82 17.74 2.45 5.86-.29 9.74-.99 11.39-2.05 1.38-.89 4.3-2.1 6.5-2.68 2.97-.78 6.37-3.38 13.25-10.11 5.09-4.98 9.25-9.43 9.25-9.88s1.3-2.46 2.87-4.44c5.62-7.08 4.92-24.85-1.13-28.49-4.37-2.62-6.1-.8-6.91 7.24-.93 9.2-2 11.76-7.53 18.11-3.57 4.08-5.96 5.84-9.33 6.86a42 42 0 0 0-8 3.49c-4.82 2.94-9.91 2.66-18.27-1.01-9.26-4.06-12.66-6.87-17.87-14.74-4.1-6.18-4.28-6.8-4.28-14.05-.01-11.63.8-14.02 6.7-19.91 6.76-6.72 13.13-10.89 17.87-11.69 5.36-.9 6.42-2.55 4.39-6.82-.9-1.9-2.63-3.73-3.83-4.05-3.14-.84-12.83-.63-15.18.34m215.25 6.1c-4.64 2.8.17 5.64 6.56 3.88 3.49-.97 4.62-2.24 2.93-3.28-1.9-1.17-7.91-1.56-9.49-.6m-1111.3 1.04c-.37.6-.19 1.57.41 2.17 1.35 1.35 6.57-.75 5.64-2.26-.83-1.34-5.21-1.28-6.05.09m46.35 1.11c.93.93 1.47.93 2.4 0s.67-1.2-1.2-1.2-2.13.27-1.2 1.2m225.58 5c-3.93 3-16.53 13.83-18.38 15.8-.82.88-3.07 2.78-5 4.22-1.93 1.45-5.75 4.7-8.5 7.25s-6.7 5.52-8.8 6.62c-2.09 1.1-4.03 2.6-4.32 3.35-.46 1.2-10.54 7.4-18.88 11.6-5.22 2.64-4.59 5.87 2.44 12.57 3.33 3.17 6.06 6.25 6.06 6.85s2.01 3.28 4.47 5.95a93 93 0 0 1 8.25 10.84c9.85 15.54 13.83 16.31 25.96 5.02 4.81-4.47 4.18-6.6-2.19-7.36-6.76-.8-7.84-1.4-10.29-5.77a60 60 0 0 0-6.02-8.2c-2.15-2.44-4.22-5.85-4.6-7.58-.6-2.74-.22-3.59 3.12-6.8a44 44 0 0 1 8.6-6.16c2.63-1.36 5.05-3.14 5.35-3.94.55-1.41 3.35-2.1 3.35-.83 0 .35-.5 2.3-1.1 4.33-.95 3.16-.81 4.29.95 7.75 3.15 6.17 9.66 12.29 13.08 12.29 3.44 0 9.07-4.87 9.07-7.84 0-2.21-9.3-13.75-13.6-16.89q-2.64-1.94-2.65-4.67c0-5.07 10.53-13.6 16.79-13.6 1.62 0 3.44 1.01 4.79 2.66a83 83 0 0 0 5.35 5.76c3.39 3.3 5.32 7.28 5.32 10.95 0 1.24.6 3.06 1.32 4.06 1.22 1.67 1.55 1.69 4.3.26 3.68-1.9 11.38-10.11 11.38-12.13 0-.82-1.35-3.03-3-4.9-1.65-1.89-3-3.75-3-4.15 0-.81-2.86-4.44-10.75-13.64-2.89-3.37-5.25-6.51-5.25-7 0-1.7-7.26-8.87-8.98-8.87-.96 0-3.05.99-4.63 2.2m-246.48 50.4c-1.13 1.37-1.05 1.82.54 2.99 2 1.46 6.53.9 7.74-.96 2.06-3.15-5.76-5.06-8.28-2.02m1096.48-.63c-5.38 2.17-2.49 5.86 3.56 4.53 4.2-.92 5.73-3.07 3.18-4.44-2.33-1.25-3.83-1.27-6.74-.09m-1078.07 4.72c-6.5 1.26-4.3 5.81 3.53 7.28 2.94.56 6.6 2.07 8.15 3.37a17 17 0 0 0 6.89 3.02c3.17.5 4.4 1.3 5.6 3.63.86 1.64 3.23 3.9 5.28 5.03 5.62 3.09 10.1 6.53 12.54 9.64 2.45 3.11 4.28 4.8 20.69 19.04 6.32 5.5 13.52 11.85 16 14.14 2.47 2.28 5.05 4.15 5.73 4.15.67 0 1.96 1.13 2.86 2.5 1.8 2.73 4.41 3.36 4.41 1.05 0-.8-.7-1.84-1.56-2.32-.85-.48-2.54-2.49-3.75-4.46-2.31-3.78-14.13-16.74-16.72-18.33-.84-.52-3.9-3.71-6.82-7.1-2.9-3.38-6.62-6.7-8.26-7.38s-3.4-2.05-3.94-3.05c-.53-1-3.45-3.47-6.49-5.48a49 49 0 0 1-9.1-8.05c-2.64-3.2-4.32-4.38-6.3-4.38-1.6 0-3.68-1.03-5.05-2.48a12 12 0 0 0-5.63-3.1c-2.13-.4-4.22-1.83-5.9-4.02-2.63-3.46-5.27-4.04-12.16-2.7m1054.53 2.66c-1.99 2.25-4.12 3.64-5.58 3.64-1.3 0-3.53 1.17-4.96 2.6s-4 3.08-5.71 3.66c-1.7.59-5.68 3.7-8.83 6.94s-7.3 6.54-9.24 7.35a8.8 8.8 0 0 0-4.91 4.82c-.77 1.84-3.51 5.1-6.1 7.24-4.77 3.96-12.52 12.94-12.52 14.52 0 1.8 3.93.77 5.71-1.5a10.4 10.4 0 0 1 4.03-3.05 4.8 4.8 0 0 0 2.8-2.68c.8-2.54 6.3-7.57 10.62-9.74a16 16 0 0 0 5.33-4.88c1.1-1.77 2.91-3.52 4.01-3.88 1.1-.37 3.27-1.74 4.83-3.04 1.55-1.3 3.44-2.36 4.2-2.36.75 0 2.58-1.58 4.05-3.52a11.8 11.8 0 0 1 7.14-4.64c2.46-.62 5.48-2.22 6.73-3.57 1.5-1.6 4.24-2.84 8.06-3.6 5.92-1.2 8.92-3.63 6.92-5.64-.56-.56-3.8-1.3-7.19-1.66-6.14-.64-6.18-.63-9.39 3m-273.35 3.73a99 99 0 0 1-10.13 5.82c-4.92 2.27-7.82 5.83-6.27 7.7.57.69 2.47 1.56 4.22 1.94 3.57.77 10.45 6.45 12.58 10.37.77 1.41 3.92 5.86 7 9.88s6.27 8.55 7.1 10.04a98 98 0 0 0 6 8.56c2.47 3.2 5.4 7.5 6.5 9.54a71 71 0 0 0 4.33 6.9 27 27 0 0 1 3.5 7.92c1.55 6.27 4.46 6.94 7.54 1.73a13.3 13.3 0 0 1 5.67-5.08c1.95-.82 3.8-2.13 4.1-2.93s2.76-3.03 5.46-4.96c5.58-4.02 6.4-7 2.34-8.56a19 19 0 0 0-5.58-.97c-2.3 0-4.42-1.35-8.96-5.68-3.28-3.13-6.93-7.29-8.12-9.25s-4.32-6.2-6.96-9.4c-2.65-3.22-4.82-6.18-4.82-6.58s-3.13-4.97-6.95-10.16c-4.74-6.43-7.16-10.7-7.62-13.43-.82-4.94-2.12-7.53-3.72-7.4-.66.05-3.91 1.85-7.21 4m-487 9.58c-3.93 1.05-14.07 7.28-17.34 10.65-2.91 3.01-3.45 4.41-4.32 11.3-1.44 11.47-.35 19.71 3.13 23.68a35 35 0 0 1 4.47 6.69c.91 1.92 2.54 5.08 3.61 7 2.13 3.83 2.58 10.96.89 14.12-1.27 2.37-6.9 7.88-8.05 7.88-1.8 0-12.01-8.5-15.34-12.77-3.1-3.99-3.55-5.26-3.55-10.17 0-6.8-1.92-10.06-5.9-10.06-1.53 0-3.48.79-4.33 1.75-2.82 3.2-5.77 10.13-5.74 13.46.04 4.83 5.81 14.98 9.47 16.66 1.65.76 4.35 2.6 6 4.1 8.47 7.66 23.33 9.76 35.42 5 8.08-3.17 11.5-6.73 14.04-14.58 2.32-7.16 2.5-9.65.95-12.56-.6-1.12-1.46-4.66-1.91-7.86-.66-4.61-1.73-7-5.16-11.52-9.8-12.9-11.62-17.04-9.36-21.4 1.5-2.9 6.88-6.05 10.34-6.05 2.91 0 10.4 3.42 12.3 5.62 1.72 2 3.57 5.3 6.75 12.02 1.08 2.28 2.48 4.46 3.1 4.84 2.01 1.24 5.42-.34 9.78-4.54 5.57-5.36 5.61-8.05.18-11.48-2.23-1.41-4.93-4.05-6-5.86a9.5 9.5 0 0 0-5.77-4.43c-2.11-.64-4.65-2.06-5.65-3.16s-2.36-2.01-3.01-2.01c-.66 0-3.05-1.34-5.32-2.98-4.08-2.96-9.84-4.37-13.68-3.34m436 28.53c-1.1.63-2.5 1.8-3.1 2.61s-3.68 1.82-6.85 2.26c-3.45.46-6.63 1.57-7.91 2.74-2.67 2.46-13.88 8.03-23.27 11.57-3.93 1.48-7.91 3.55-8.86 4.6s-2.99 2.18-4.54 2.52c-4.96 1.09-5.49 2.76-2.98 9.46 1.23 3.28 2.83 6.46 3.56 7.07 2.62 2.18 7.45-2.3 7.45-6.92 0-2.83 3.75-5.12 8.38-5.12 3.31 0 4.55.66 7.9 4.17 2.18 2.3 4.63 5.78 5.44 7.75a23 23 0 0 0 3 5.3c.84.94 1.91 3.8 2.4 6.35a18 18 0 0 0 3.87 8.07c1.65 1.89 3.01 3.98 3.01 4.66s.95 3 2.11 5.17c3.86 7.2 7.89 18.32 7.89 21.75 0 1.87.6 4.22 1.34 5.23 1.8 2.46 7.23 1.45 11.94-2.23a93 93 0 0 1 8.11-5.44c6.33-3.75 6.36-6.78.08-10.56-3.55-2.13-4.78-3.59-5.67-6.72-.63-2.2-1.94-4.9-2.92-6.01a24 24 0 0 1-3.27-5.58c-.82-1.97-2.2-4.15-3.04-4.86-.86-.7-2.03-3.04-2.6-5.19a30 30 0 0 0-3.44-7.41 153 153 0 0 1-6.68-11.9c-3.67-7.16-4.15-8.8-3.32-11.17 1.95-5.54 8.92-7.58 21.8-6.4 4.51.43 5.2-1.1 3.36-7.56-.89-3.12-2.38-6.52-3.3-7.55-1.9-2.1-6.8-2.43-9.89-.66m-372.96 14.09a30 30 0 0 0-2.66 5.75 19 19 0 0 1-3.14 5.65c-4.33 4.78 1.61 7.21 8.03 3.3 1.8-1.1 3.89-2 4.63-2 2.21 0 12.08 4.66 13.5 6.38 1.97 2.38.6 7.67-3.56 13.72-2.63 3.82-3.77 6.73-4.26 10.84-.36 3.1-1.44 6.73-2.4 8.1a25 25 0 0 0-2.78 6.34c-.58 2.14-2.58 6.12-4.46 8.84-1.88 2.73-3.87 6.68-4.44 8.78a8.8 8.8 0 0 1-4.26 5.73c-3.57 2.12-6.3 6.37-5.48 8.51.3.76 6.27 3.58 13.28 6.25l12.75 4.88 1.85-2.3c1.32-1.63 1.86-3.92 1.86-7.93-.01-7.39 5.25-23.96 9.84-31 2.3-3.51 3.8-7.3 4.36-11 .47-3.1 1.75-6.77 2.84-8.14a24 24 0 0 0 2.97-5c2.89-7.29 4.73-8.16 10.62-5.04 3.48 1.85 5.06 3.49 6.43 6.68 1 2.33 3.03 5.02 4.5 6 2.62 1.7 2.75 1.7 4.42-.37 2.48-3.06 3.43-12.6 1.6-16.05-2.26-4.27-8.02-8.16-13.63-9.23-2.8-.53-6.2-1.83-7.55-2.89-1.34-1.05-4.67-2.22-7.4-2.6a18 18 0 0 1-8.52-3.52 25 25 0 0 0-8.6-3.91c-2.77-.6-7-2.43-9.39-4.08-5.26-3.62-8.88-3.85-10.95-.7m629.46 3c-2.47 1.25-8.63 11.71-6.9 11.71.5 0 .9-.44.9-.97 0-.54 1.44-1.35 3.2-1.8 2.36-.61 3.79-1.96 5.5-5.19 1.26-2.4 2.3-4.5 2.3-4.7 0-.74-2.63-.24-5 .95m-361.9 24.8a95 95 0 0 0-10.25 2.88c-3.22 1.12-7.54 2.04-9.6 2.04-4.69.02-13.84 2.4-15.96 4.16-.87.73-4.56 1.55-8.19 1.83-6 .45-6.63.72-6.93 2.85-.19 1.3.52 3.3 1.57 4.5 7.55 8.53 10.32 16.98 12.76 38.97.82 7.42 2.22 16.33 3.1 19.78 1.54 6.01 1.49 12.34-.16 19.12-.56 2.28-.24 2.91 1.95 3.91 3.07 1.4 13.25-.1 22.32-3.29 3.57-1.25 9.98-2.21 18.16-2.71 13.8-.84 19.54-2.78 22.75-7.67 1.96-2.99 1.27-12.46-1.18-16.19-1.9-2.9-6.06-3.04-6.95-.23-1.11 3.5-8.72 10.23-12.48 11.03-1.93.41-6.7 1.06-10.6 1.43-6.52.62-7.32.48-9.78-1.66-2.03-1.77-2.92-3.8-3.65-8.34-1.61-9.99-1.27-14.05 1.43-17.2 2.1-2.44 3.13-2.8 7.95-2.8 4.88 0 5.92.38 8.88 3.25 1.85 1.79 4.31 3.25 5.49 3.25 2.47 0 5.58-2.74 4.96-4.38-.24-.62-1.22-3.82-2.19-7.12-3.76-12.87-3.95-13.02-12.5-10-9.38 3.31-20 1.03-20-4.29 0-1.5-.9-4.42-2-6.47-3.62-6.76-2.52-9.02 5-10.25 2.48-.4 6.62-1.8 9.22-3.11 6.38-3.22 7.9-3.03 13.28 1.62 2.54 2.2 5.49 4 6.54 4 4.41 0 3.65-12.47-1.05-17.16-2.97-2.98-4.51-3.2-11.89-1.76m-173.77 5.5c-.36.93-.12 2.42.52 3.3 7.4 10.25 8.27 13.04 5.67 18.08-.95 1.84-1.86 8.66-2.56 19.2-1.5 22.65-4.05 32.76-10.01 39.55-3.22 3.67-3.86 7.73-1.37 8.68.87.34 5.4.61 10.05.61 5.72 0 9.45.5 11.49 1.56 6.74 3.49 10.24.14 7.59-7.26-2.11-5.9-2.14-8.74-.17-18.2 1.8-8.58 2.88-10.95 5.45-11.9 1.02-.39 7.99-.48 15.47-.2 10.6.39 13.83.83 14.58 2 2.24 3.49 3 9.35 2.36 17.95-.66 8.75-1 9.72-5.8 16.48-3.09 4.35-1.01 5.34 12.92 6.14 14.23.81 15.27.32 12.98-6.12-2.59-7.25-1.2-33.5 2.19-41.45.82-1.92 1.91-8.62 2.43-14.88.87-10.45 1.18-11.67 3.91-14.97 3.61-4.39 3.9-8.53.72-10.5-3.1-1.9-26.72-2.32-27.85-.49-.47.75.27 3.22 1.8 6.02 2.39 4.4 2.54 5.44 2.06 13.84-.43 7.62-.88 9.48-2.76 11.48-2.97 3.16-10.15 4.02-22.7 2.73-8.78-.9-9.93-1.27-12.11-3.8-1.98-2.3-2.31-3.53-1.85-6.87.78-5.74 4.36-13.41 8.3-17.81 5.18-5.79 4.77-6.79-4.14-10.02-8.36-3.03-10.66-3.52-19.76-4.2-7.67-.56-8.84-.43-9.41 1.05m-364.7 18.93a22 22 0 0 0-6.5 3.78 20 20 0 0 1-5.95 3.55c-5.17 1.72-10.48 6.49-14.5 13-3.96 6.41-4.42 9.7-2.32 16.66 2.36 7.83 7.43 3.34 7.58-6.72.05-2.77.88-4.58 3.31-7.14a62 62 0 0 0 4.75-5.6c.96-1.4 4.01-2.89 8.5-4.16 10.8-3.08 15.66-3.36 23.77-1.36a62 62 0 0 0 13.44 1.63c6.57-.16 7.09.12 10.27 5.5 1.57 2.65 2.66 3.25 6.96 3.84 3.32.46 5.42 1.32 6.04 2.47.52.97 2.29 2.32 3.93 3s3.71 2.34 4.6 3.69a11.5 11.5 0 0 0 4.3 3.6c1.48.64 4.56 2.76 6.84 4.7 7.4 6.33 11.63 9.05 14.04 9.05q2.37-.02 3.3 2.46c.51 1.36 2.86 3.7 5.22 5.2 4.35 2.76 10.97 5.47 11.68 4.78.8-.8-3-5.44-4.46-5.44-.84 0-2.16-1.51-2.94-3.36-1.09-2.6-2.14-3.5-4.7-3.93-2.26-.38-5.63-2.76-10.79-7.62-4.12-3.88-7.92-7.07-8.43-7.07-.51-.01-2.34-1.48-4.06-3.27-3.73-3.86-10.56-8.05-14.28-8.75-1.69-.32-3.68-2.02-5.45-4.67-2.32-3.44-3.52-4.27-7.04-4.85-2.33-.38-5.23-1.6-6.44-2.7-1.5-1.4-4.27-2.24-8.82-2.71-5.87-.61-6.92-1.05-9.1-3.84-1.57-2.01-3.63-3.33-5.67-3.64-8.58-1.3-13.51-1.32-17.07-.08m875.53.48a16 16 0 0 0-6.25 3.58c-2.24 2.15-4.3 2.96-8.86 3.5-3.55.42-6.98 1.5-8.5 2.7-1.4 1.1-4.1 2.3-6 2.65-3.45.65-7.56 4.56-7.56 7.18 0 1.7-3.16 3.4-6.28 3.4-1.33 0-3.2.88-4.19 1.96a14 14 0 0 1-4.98 3.02 13 13 0 0 0-5.4 4.04c-1.22 1.64-2.68 2.98-3.25 2.98-1.49 0-10.95 10.3-10.56 11.5.7 2.22 4.78 1.59 7.53-1.18 4.37-4.4 10.73-9.22 13.57-10.3a7.8 7.8 0 0 0 3.73-3.5c.74-1.63 2.44-2.88 4.74-3.5 1.98-.53 4.11-1.81 4.75-2.85.8-1.29 2.83-2.06 6.5-2.49 4.6-.53 5.79-1.14 8.55-4.4 2.98-3.52 3.78-3.87 11.5-5.03 25.53-3.84 24.44-3.78 32.1-1.85 9.68 2.43 14.01 5.56 18.31 13.25 1.95 3.48 4.85 7.26 6.46 8.4q5.58 3.96-.05 7.13c-2.74 1.56-5.02 6.17-3.7 7.49.32.31 1.69.3 3.04-.05 1.75-.44 2.68-1.55 3.18-3.83a19 19 0 0 1 2.78-6.03c1.87-2.52 1.95-3.15.78-6.04-.72-1.77-1.98-5.47-2.81-8.22-1.09-3.6-3.09-6.62-7.13-10.75-3.09-3.17-6.53-6.03-7.64-6.37-1.12-.33-3.15-1.65-4.53-2.93a20 20 0 0 0-5.32-3.39c-3.2-1.2-19.5-1.25-24.51-.07m-80.71 52.08c-.36.58-.41 1.31-.1 1.62.82.82 3.64-.46 3.64-1.66 0-1.36-2.7-1.33-3.54.04m-678.72 25.91c-4.36.82-5.22 1.44-4.22 3.06 1.26 2.03 7.24 3.96 12.31 3.96 3.89 0 5.64.6 8.52 2.88a26 26 0 0 0 8.38 4.07c2.63.65 5.77 2.13 6.99 3.26 1.45 1.36 4.03 2.24 7.5 2.56 4.47.4 5.84 1.05 8.93 4.2 2 2.06 6.84 5.87 10.75 8.46 3.9 2.6 7.1 5.1 7.1 5.55s2.75 3 6.11 5.67 12.73 11.48 20.82 19.57c12.55 12.57 19.15 17.78 22.52 17.78.28 0-.5-2.2-1.72-4.9-1.28-2.81-6.28-9.3-11.73-15.2-16.21-17.57-26.18-26.93-34.5-32.39a119 119 0 0 1-9.28-6.72c-1.81-1.54-3.91-2.79-4.68-2.79s-2.66-1.07-4.22-2.39a32 32 0 0 0-6.83-4.04c-2.2-.91-5.79-3.1-7.99-4.87-3.67-2.93-4.7-3.23-12.44-3.56-6.04-.26-9.17-.87-11-2.15-3.29-2.3-6.62-2.89-11.32-2m665.76.72c-6.6 1.6-1.72 4.29 7.77 4.29 5.7 0 6.41.26 9.8 3.58a17.6 17.6 0 0 0 7.9 4.52c2.31.52 5.85 2.06 7.85 3.43 8.2 5.57 9.53 1.69 2.23-6.53l-4.88-5.5h-7.52c-6.52 0-7.8-.3-9.63-2.25-1.64-1.76-3.12-2.22-6.8-2.13-2.6.06-5.62.33-6.72.6m-697.37 7.1c-2 2.1-4.87 4.59-6.38 5.53-1.51.93-2.75 2.59-2.75 3.67 0 2.94 5.93 2.7 9.25-.37 1.4-1.3 4.5-2.67 6.88-3.06 4.43-.7 8.87-3.85 8.87-6.29 0-1.73-4.13-3.3-8.68-3.3-2.81 0-4.3.8-7.19 3.82m665.87-3.11c-.83.3-2.4 1.37-3.52 2.38-1.11 1-4.97 3.16-8.57 4.8s-7.1 3.63-7.76 4.43c-.67.81-2.78 1.76-4.7 2.12-2.06.39-4.1 1.63-5.04 3.06-.87 1.32-3.22 2.93-5.24 3.57a20 20 0 0 0-5.67 2.9c-1.1.93-3.58 2.65-5.5 3.8-5.6 3.37-43.26 43-46.12 48.53a17 17 0 0 1-3.5 4.2 11 11 0 0 0-3.03 5.36c-.62 3.24-.56 3.32 1.58 2.18 1.23-.66 3.13-2.72 4.22-4.57 1.1-1.86 2.81-3.64 3.8-3.96 2.13-.67 12.05-10.9 12.05-12.42 0-.57 1.41-1.77 3.14-2.66s5.9-4.41 9.25-7.81c3.36-3.4 9.93-9.18 14.61-12.83s9.89-7.85 11.58-9.3a58 58 0 0 1 6.7-4.82l8.43-5.06a43 43 0 0 0 7.48-5.75c2.18-2.3 3.55-2.86 7.1-2.86 3.06 0 4.93-.58 6.13-1.9 1.88-2.1 4.88-3.45 11.13-5.04 4.35-1.1 10.1-6.2 9-7.98-.68-1.1-14.73-1.4-17.55-.37m-520.33 42.96c-1.6 1.6-.25 3.91 5.95 10.16 3.64 3.67 8.37 9.02 10.5 11.89 5.26 7.05 7.37 8.1 10.42 5.24 3.08-2.89 5.73-8.56 5.01-10.74-.5-1.56-2.53-3.2-10.42-8.45-1.43-.95-5.16-2.01-8.3-2.37-4.58-.52-6.23-1.22-8.28-3.52-2.6-2.92-3.68-3.41-4.88-2.21m414.79 8.92a59 59 0 0 1-8.1 4.47c-2.28.98-4.45 2.28-4.84 2.9s1.2 4.04 3.51 7.59c5.31 8.15 8.08 8.7 10.87 2.18 1-2.35 3.94-6.44 6.52-9.1 3.6-3.7 4.62-5.45 4.39-7.48-.27-2.32-.81-2.69-4.35-2.95-3.06-.22-5 .36-8 2.4m-35.8 12.07c-1.18 1.18-.7 6.3.95 10.11 5.08 11.76 5.9 24.91 1.99 32.25a35 35 0 0 0-3.12 9.5c-.4 2.73-1.5 5.87-2.47 6.97-4.48 5.1-4.94 9.5-.99 9.5 2.92 0 12.53-10.66 15.98-17.73a72 72 0 0 0 4.5-13.57c1.6-7.33 1.6-8.33-.04-17-2.19-11.69-2.92-13.66-6.46-17.54-2.15-2.36-3.75-3.16-6.28-3.16-1.86 0-3.69.3-4.05.67m-332.2 4.95c-3.14 3.4-6.47 12.38-6.47 17.46 0 2.2.9 5.77 2 7.93s2.68 6.5 3.5 9.65c.82 3.14 2.53 6.87 3.81 8.28a45 45 0 0 1 4.07 5.37c1.21 1.95 2.42 2.72 3.93 2.5 3.47-.5 3.26-4.1-.5-8.37l-3.3-3.75-.29-18.1c-.16-9.95-.5-19.05-.75-20.23-.7-3.35-3.28-3.67-6-.73m296 5.6c-.8 2.06 2.23 8.53 5.16 11.05 3.53 3.03 4.38 5.7 5.3 16.49.42 5.1 1.1 9.6 1.5 9.99 1.09 1.1 10.37-9.11 11.17-12.28.5-2.02.03-4-1.7-7.19-3.6-6.6-10.52-15.05-13.64-16.63-4.86-2.48-7.23-2.9-7.8-1.43m-263.86 3.66c-2.78 2.85-4.33 5.74-5.79 10.75-3.23 11.13-3.34 13.17-.87 15.8 1.82 1.94 2.07 3.06 1.57 7.18-.74 6.12.96 9.76 4.76 10.2 2.64.3 2.73.16 2.73-4.58 0-2.68-.7-6.94-1.56-9.46-1.42-4.18-1.41-5.08.11-10.42a31 31 0 0 1 5.76-10.78c4.15-4.99 4.93-8.38 2.57-11.23-1.99-2.39-5.37-1.46-9.28 2.54m-72.05 3.02a1.12 1.12 0 0 0 1.9 1.17c.32-.52.16-1.2-.36-1.53a1.1 1.1 0 0 0-1.54.37m173.88 5.4c-.64 1.66 4.2 12.01 7.84 16.78a17.6 17.6 0 0 1 3.3 8.5c.3 2.7 1.26 7.67 2.12 11.05 1.4 5.57 1.4 6.56-.01 10.5a54 54 0 0 0-2.2 10.11q-.62 5.76-2.92 8.5a43 43 0 0 0-4.32 6.74c-2.36 4.66-13.35 15.5-15.7 15.5-.88 0-2.54 1.58-3.68 3.5-1.25 2.14-3.1 3.74-4.71 4.09-4.76 1.04-5.3 1.38-4.96 3.14.5 2.58 2.88 2.63 10.9.24 4.7-1.4 7.95-3.03 9.31-4.66a52 52 0 0 1 3.74-4.03 86 86 0 0 0 9.86-10.32c1.92-2.35 4.72-5.7 6.2-7.45 1.64-1.92 3.57-6.32 4.88-11.1 1.18-4.35 3.23-9.75 4.54-12 3.5-6.01 3.28-14.8-.65-26.16-3.96-11.42-6.66-15.32-14.03-20.2-6.4-4.26-8.67-4.91-9.51-2.72m62.07 8.08c-9.53 6.3-9.05 4.5-8.66 31.92l.34 24.12 2.91 3.3c1.6 1.83 2.91 3.77 2.91 4.33 0 2.2 8.33 12.1 13.27 15.77 2.88 2.13 6.08 4.83 7.12 6 2.05 2.3 8.25 3.93 9.6 2.53 1.88-1.94-.22-6.46-3.87-8.34a31 31 0 0 1-6.78-5.2c-6.31-6.66-11.34-12.58-11.34-13.36 0-.44-1.33-2.88-2.96-5.41-3.66-5.72-5.49-16.27-4.78-27.73.54-8.68 2.61-14.42 8.59-23.79 1.73-2.72 3.15-5.53 3.15-6.25 0-2.27-4.33-1.31-9.5 2.1m-27.73 73.35c-.85.96-2.78 4.14-4.29 7.05l-2.74 5.3 2.2 9.7c2.63 11.51 3.12 12.6 5.85 13.01 4.42.66 6.94-2.48 10.15-12.63 3.54-11.17 3.62-12.16 1.44-16.48-3.7-7.33-9.14-9.9-12.61-5.95"/></svg>